<svg version="1.1" xmlns="http://www.w3.org/2000/svg" viewBox="0 0 1287 823" width="1287" height="823" class="excalidraw-svg">
  <!-- svg-source:excalidraw -->
  
  <defs>
    <style class="style-fonts">
      
    </style>
    
  </defs>
  <g stroke-linecap="round" transform="translate(10 10) rotate(0 633.5 401.5)"><path d="M32 0 C447.39 0, 862.78 0, 1235 0 M32 0 C441.73 0, 851.47 0, 1235 0 M1235 0 C1256.33 0, 1267 10.67, 1267 32 M1235 0 C1256.33 0, 1267 10.67, 1267 32 M1267 32 C1267 194.93, 1267 357.86, 1267 771 M1267 32 C1267 221.8, 1267 411.59, 1267 771 M1267 771 C1267 792.33, 1256.33 803, 1235 803 M1267 771 C1267 792.33, 1256.33 803, 1235 803 M1235 803 C850.7 803, 466.4 803, 32 803 M1235 803 C809.69 803, 384.37 803, 32 803 M32 803 C10.67 803, 0 792.33, 0 771 M32 803 C10.67 803, 0 792.33, 0 771 M0 771 C0 553.19, 0 335.39, 0 32 M0 771 C0 526.77, 0 282.54, 0 32 M0 32 C0 10.67, 10.67 0, 32 0 M0 32 C0 10.67, 10.67 0, 32 0" stroke="#1e1e1e" stroke-width="4" fill="none"></path></g><g stroke-linecap="round"><g transform="translate(322 228) rotate(0 0 199.5)"><path d="M0 0 C0 66.5, 0 332.5, 0 399 M0 0 C0 66.5, 0 332.5, 0 399" stroke="#1e1e1e" stroke-width="1" fill="none"></path></g></g><mask></mask><g stroke-linecap="round"><g transform="translate(321 228) rotate(0 54.190698604072054 -14.520353928239473)"><path d="M0 0 C18.06 -4.84, 90.32 -24.2, 108.38 -29.04 M0 0 C18.06 -4.84, 90.32 -24.2, 108.38 -29.04" stroke="#1e1e1e" stroke-width="1" fill="none"></path></g></g><mask></mask><g stroke-linecap="round"><g transform="translate(321 228) rotate(0 232 0)"><path d="M0 0 C77.33 0, 386.67 0, 464 0 M0 0 C77.33 0, 386.67 0, 464 0" stroke="#1e1e1e" stroke-width="1" fill="none"></path></g></g><mask></mask><g stroke-linecap="round"><g transform="translate(786 229) rotate(0 48.84262239271875 -13.087341226347263)"><path d="M0 0 C16.28 -4.36, 81.4 -21.81, 97.69 -26.17 M0 0 C16.28 -4.36, 81.4 -21.81, 97.69 -26.17" stroke="#1e1e1e" stroke-width="1" fill="none"></path></g></g><mask></mask><g stroke-linecap="round"><g transform="translate(428 199) rotate(0 227 0)"><path d="M0 0 C75.67 0, 378.33 0, 454 0 M0 0 C75.67 0, 378.33 0, 454 0" stroke="#1e1e1e" stroke-width="1" fill="none"></path></g></g><mask></mask></svg>