<svg version="1.1" xmlns="http://www.w3.org/2000/svg" viewBox="0 0 572 374" width="572" height="374" class="excalidraw-svg">
  <!-- svg-source:excalidraw -->
  
  <defs>
    <style class="style-fonts">
      
    </style>
    
  </defs>
  <g transform="translate(18 166) rotate(0 38 27.5)" stroke="none"><path fill="#1971c2" d="M 0.89,0.59 Q 0.89,0.59 -0.19,2.36 -1.27,4.12 -2.52,7.35 -3.76,10.59 -4.57,14.20 -5.38,17.82 -5.71,21.61 -6.05,25.39 -5.90,29.54 -5.75,33.68 -4.85,37.65 -3.94,41.61 -2.18,45.19 -0.41,48.78 4.22,53.05 8.87,57.32 14.49,60.26 20.11,63.21 25.56,64.45 31.01,65.69 35.01,65.95 39.00,66.21 42.10,66.04 45.20,65.87 49.54,64.39 53.87,62.90 57.47,61.41 61.07,59.91 64.27,58.15 67.46,56.39 69.88,54.28 72.29,52.16 75.01,48.74 77.72,45.32 79.11,42.24 80.51,39.17 81.08,36.23 81.66,33.29 81.92,30.05 82.17,26.81 81.43,22.70 80.68,18.59 79.25,15.19 77.81,11.80 76.06,8.33 74.31,4.86 72.21,2.03 70.10,-0.80 67.28,-3.07 64.46,-5.33 59.93,-7.10 55.40,-8.86 51.20,-9.91 46.99,-10.97 42.11,-11.42 37.24,-11.86 31.75,-11.78 26.26,-11.70 21.71,-10.83 17.17,-9.96 12.74,-7.94 8.32,-5.91 4.96,-3.50 1.60,-1.09 0.06,-0.10 -1.47,0.87 -1.56,0.92 -1.66,0.97 -1.76,0.99 -1.87,1.01 -1.97,0.99 -2.08,0.97 -2.17,0.92 -2.26,0.87 -2.34,0.80 -2.41,0.72 -2.46,0.63 -2.50,0.53 -2.51,0.42 -2.53,0.32 -2.51,0.22 -2.48,0.11 -2.43,0.02 -2.38,-0.06 -2.30,-0.13 -2.22,-0.20 -2.12,-0.24 -2.02,-0.28 -1.91,-0.29 -1.81,-0.30 -1.70,-0.27 -1.60,-0.24 -1.51,-0.18 -1.42,-0.12 -1.36,-0.04 -1.29,0.04 -1.26,0.14 -1.22,0.24 -1.22,0.34 -1.22,0.45 -1.26,0.55 -1.29,0.65 -1.35,0.74 -1.42,0.82 -1.50,0.88 -1.59,0.94 -1.69,0.97 -1.79,1.00 -1.90,1.00 -2.01,0.99 -2.11,0.95 -2.20,0.91 -2.29,0.85 -2.37,0.78 -2.42,0.69 -2.48,0.60 -2.50,0.49 -2.53,0.39 -2.52,0.28 -2.51,0.18 -2.46,0.08 -2.42,-0.01 -2.35,-0.08 -2.27,-0.16 -2.27,-0.16 -2.27,-0.16 -0.94,-1.41 0.38,-2.65 3.79,-5.48 7.19,-8.31 11.91,-10.50 16.62,-12.69 21.41,-13.63 26.20,-14.56 31.85,-14.66 37.50,-14.76 42.60,-14.28 47.70,-13.81 52.10,-12.69 56.49,-11.57 61.36,-9.57 66.23,-7.57 69.30,-5.04 72.37,-2.52 74.64,0.51 76.92,3.54 78.72,7.11 80.52,10.68 82.02,14.38 83.52,18.08 84.27,22.55 85.03,27.02 84.75,30.44 84.47,33.85 83.79,37.10 83.11,40.35 81.54,43.72 79.97,47.09 77.08,50.71 74.18,54.33 71.51,56.61 68.85,58.89 65.50,60.71 62.15,62.53 58.46,64.04 54.76,65.56 50.07,67.10 45.38,68.63 42.10,68.82 38.83,69.00 34.60,68.73 30.37,68.47 24.58,67.12 18.79,65.76 12.86,62.61 6.92,59.45 1.96,54.78 -2.98,50.11 -4.87,46.18 -6.76,42.26 -7.70,38.02 -8.63,33.78 -8.75,29.46 -8.86,25.13 -8.46,21.17 -8.07,17.20 -7.15,13.39 -6.24,9.58 -4.78,6.18 -3.32,2.77 -2.10,1.08 -0.89,-0.59 -0.81,-0.69 -0.72,-0.79 -0.62,-0.86 -0.51,-0.94 -0.39,-0.99 -0.27,-1.03 -0.14,-1.05 -0.01,-1.07 0.11,-1.06 0.24,-1.04 0.36,-1.00 0.48,-0.95 0.59,-0.88 0.69,-0.81 0.78,-0.72 0.87,-0.62 0.93,-0.51 0.99,-0.39 1.03,-0.27 1.06,-0.14 1.06,-0.01 1.06,0.11 1.04,0.23 1.01,0.36 0.95,0.48 0.89,0.59 0.89,0.59 L 0.89,0.59 Z"></path></g><g transform="translate(36 196) rotate(0 20 -6.5)" stroke="none"><path fill="#1971c2" d="M -1.10,-0.36 Q -1.10,-0.36 -0.76,-2.17 -0.42,-3.97 0.43,-5.93 1.30,-7.89 3.24,-10.04 5.19,-12.18 6.61,-13.37 8.03,-14.56 9.42,-15.16 10.80,-15.75 12.01,-15.67 13.23,-15.58 13.94,-15.06 14.66,-14.53 15.57,-12.11 16.48,-9.69 17.08,-7.61 17.68,-5.54 18.67,-4.35 19.66,-3.16 20.80,-2.12 21.94,-1.08 23.78,-0.99 25.63,-0.90 27.98,-2.12 30.33,-3.35 34.15,-5.80 37.97,-8.25 38.06,-8.30 38.15,-8.35 38.26,-8.37 38.36,-8.39 38.47,-8.37 38.57,-8.36 38.67,-8.31 38.76,-8.26 38.84,-8.18 38.91,-8.11 38.96,-8.01 39.00,-7.92 39.01,-7.81 39.03,-7.70 39.01,-7.60 38.98,-7.50 38.93,-7.40 38.88,-7.31 38.80,-7.24 38.72,-7.17 38.62,-7.13 38.52,-7.09 38.41,-7.09 38.31,-7.08 38.20,-7.11 38.10,-7.13 38.01,-7.19 37.92,-7.25 37.86,-7.34 37.79,-7.42 37.76,-7.52 37.72,-7.62 37.72,-7.73 37.72,-7.83 37.75,-7.93 37.79,-8.03 37.85,-8.12 37.91,-8.20 38.00,-8.27 38.09,-8.33 38.19,-8.36 38.29,-8.38 38.40,-8.38 38.51,-8.38 38.60,-8.34 38.70,-8.30 38.79,-8.23 38.87,-8.16 38.92,-8.07 38.98,-7.98 39.00,-7.88 39.03,-7.78 39.02,-7.67 39.01,-7.56 38.96,-7.47 38.92,-7.37 38.85,-7.29 38.77,-7.21 38.77,-7.21 38.77,-7.21 35.23,-3.94 31.68,-0.66 28.63,0.79 25.58,2.25 22.84,1.90 20.10,1.55 18.57,0.21 17.04,-1.13 15.80,-2.84 14.56,-4.55 13.98,-6.61 13.39,-8.66 12.60,-10.75 11.81,-12.84 10.91,-12.48 10.01,-12.13 8.77,-11.08 7.52,-10.04 5.89,-8.29 4.26,-6.54 3.49,-4.73 2.72,-2.92 1.91,-1.27 1.10,0.36 1.04,0.49 0.98,0.62 0.89,0.73 0.80,0.84 0.69,0.92 0.58,1.01 0.45,1.06 0.32,1.12 0.18,1.14 0.04,1.16 -0.09,1.15 -0.23,1.14 -0.36,1.10 -0.50,1.05 -0.61,0.98 -0.73,0.90 -0.83,0.80 -0.93,0.70 -1.00,0.58 -1.07,0.45 -1.11,0.32 -1.15,0.18 -1.15,0.04 -1.16,-0.09 -1.13,-0.23 -1.10,-0.36 -1.10,-0.36 L -1.10,-0.36 Z"></path></g><g transform="translate(55 150) rotate(0 -3 -69)" stroke="none"><path fill="#e03131" d="M -0.86,-0.28 Q -0.86,-0.28 -0.93,-1.25 -1.01,-2.21 -1.24,-5.74 -1.46,-9.28 -1.82,-16.07 -2.18,-22.86 -2.90,-32.05 -3.62,-41.24 -4.48,-51.19 -5.34,-61.13 -5.99,-71.71 -6.63,-82.29 -7.15,-92.53 -7.68,-102.78 -7.76,-112.91 -7.83,-123.04 -7.67,-127.33 -7.50,-131.63 -7.48,-131.74 -7.47,-131.84 -7.42,-131.94 -7.38,-132.03 -7.30,-132.11 -7.22,-132.18 -7.13,-132.23 -7.03,-132.28 -6.93,-132.29 -6.82,-132.31 -6.72,-132.29 -6.61,-132.27 -6.52,-132.21 -6.43,-132.16 -6.36,-132.08 -6.29,-132.00 -6.25,-131.90 -6.21,-131.81 -6.20,-131.70 -6.19,-131.59 -6.21,-131.49 -6.24,-131.39 -6.30,-131.30 -6.36,-131.21 -6.44,-131.14 -6.52,-131.08 -6.62,-131.04 -6.72,-131.00 -6.83,-131.00 -6.93,-131.00 -7.04,-131.03 -7.14,-131.06 -7.22,-131.12 -7.31,-131.19 -7.37,-131.27 -7.43,-131.36 -7.46,-131.46 -7.49,-131.56 -7.49,-131.67 -7.49,-131.78 -7.45,-131.87 -7.41,-131.97 -7.35,-132.06 -7.28,-132.14 -7.19,-132.20 -7.10,-132.25 -7.00,-132.28 -6.89,-132.30 -6.79,-132.30 -6.68,-132.29 -6.58,-132.24 -6.49,-132.20 -6.41,-132.13 -6.33,-132.06 -6.28,-131.97 -6.23,-131.87 -6.21,-131.77 -6.19,-131.66 -6.19,-131.67 -6.19,-131.67 -5.81,-127.38 -5.44,-123.09 -5.03,-113.02 -4.63,-102.95 -4.01,-92.72 -3.40,-82.49 -2.72,-71.96 -2.03,-61.43 -1.13,-51.47 -0.22,-41.51 0.50,-32.27 1.24,-23.04 1.59,-16.23 1.95,-9.43 2.06,-5.33 2.16,-1.23 1.51,-0.47 0.86,0.28 0.81,0.38 0.76,0.48 0.69,0.56 0.62,0.65 0.54,0.71 0.45,0.78 0.35,0.82 0.25,0.87 0.14,0.88 0.03,0.90 -0.07,0.89 -0.18,0.88 -0.28,0.85 -0.38,0.81 -0.48,0.76 -0.57,0.70 -0.64,0.62 -0.72,0.54 -0.77,0.45 -0.83,0.35 -0.86,0.25 -0.89,0.14 -0.90,0.03 -0.90,-0.07 -0.88,-0.17 -0.86,-0.28 -0.86,-0.28 L -0.86,-0.28 Z"></path></g><g transform="translate(62 18) rotate(0 190.5 -4)" stroke="none"><path fill="#e03131" d="M 0,-1.19 Q 0,-1.19 2.58,-1.27 5.17,-1.36 7.99,-1.40 10.82,-1.43 15.13,-1.75 19.45,-2.07 28.21,-2.51 36.98,-2.95 45.87,-3.42 54.76,-3.89 64.29,-4.37 73.83,-4.86 84.78,-5.35 95.74,-5.85 107.87,-6.35 120.00,-6.84 137.24,-7.34 154.48,-7.84 170.42,-8.34 186.37,-8.84 202.36,-9.07 218.35,-9.29 234.35,-9.38 250.35,-9.47 270.67,-9.22 290.99,-8.96 307.97,-8.55 324.95,-8.14 341.06,-7.73 357.17,-7.32 364.02,-7.04 370.87,-6.76 370.98,-6.74 371.08,-6.72 371.17,-6.67 371.27,-6.62 371.34,-6.54 371.41,-6.46 371.46,-6.37 371.50,-6.27 371.51,-6.16 371.52,-6.06 371.50,-5.95 371.47,-5.85 371.42,-5.76 371.36,-5.67 371.28,-5.60 371.20,-5.53 371.10,-5.50 371.00,-5.46 370.89,-5.45 370.79,-5.45 370.68,-5.48 370.58,-5.51 370.50,-5.57 370.41,-5.63 370.34,-5.71 370.28,-5.80 370.25,-5.90 370.22,-6.00 370.22,-6.11 370.22,-6.21 370.25,-6.31 370.29,-6.41 370.35,-6.50 370.42,-6.58 370.51,-6.64 370.60,-6.70 370.70,-6.73 370.80,-6.75 370.91,-6.75 371.01,-6.74 371.11,-6.70 371.21,-6.66 371.29,-6.59 371.37,-6.52 371.42,-6.43 371.48,-6.34 371.50,-6.23 371.52,-6.13 371.51,-6.02 371.50,-5.92 371.45,-5.82 371.40,-5.73 371.33,-5.65 371.26,-5.57 371.16,-5.52 371.07,-5.48 370.96,-5.46 370.86,-5.44 370.86,-5.44 370.86,-5.44 364.00,-5.31 357.15,-5.17 341.01,-5.09 324.87,-5.01 307.91,-5.39 290.95,-5.76 270.66,-6.01 250.37,-6.25 234.38,-6.16 218.40,-6.07 202.43,-5.87 186.47,-5.67 170.52,-5.17 154.57,-4.67 137.35,-4.17 120.13,-3.68 108.00,-3.18 95.88,-2.68 84.93,-2.19 73.99,-1.70 64.46,-1.22 54.93,-0.74 46.03,-0.28 37.13,0.16 28.39,0.54 19.64,0.92 15.23,1.18 10.82,1.43 7.99,1.40 5.17,1.36 2.58,1.27 0,1.19 -0.14,1.17 -0.28,1.15 -0.41,1.10 -0.55,1.05 -0.67,0.97 -0.79,0.89 -0.88,0.78 -0.98,0.67 -1.04,0.55 -1.11,0.42 -1.14,0.28 -1.18,0.14 -1.18,-0.00 -1.18,-0.14 -1.14,-0.28 -1.11,-0.42 -1.04,-0.55 -0.98,-0.67 -0.88,-0.78 -0.79,-0.89 -0.67,-0.97 -0.55,-1.05 -0.41,-1.10 -0.28,-1.15 -0.14,-1.17 0.00,-1.19 0.00,-1.19 L 0,-1.19 Z"></path></g><g transform="translate(437 23) rotate(0 0.5 57.5)" stroke="none"><path fill="#e03131" d="M 1.09,-0.18 Q 1.09,-0.18 1.59,1.50 2.09,3.19 2.24,11.23 2.40,19.26 2.46,28.96 2.52,38.66 2.55,48.53 2.57,58.40 2.58,67.49 2.60,76.57 2.59,84.17 2.58,91.76 2.43,99.02 2.28,106.27 1.97,109.35 1.65,112.44 1.63,112.54 1.62,112.65 1.57,112.74 1.52,112.83 1.44,112.91 1.36,112.98 1.27,113.03 1.17,113.07 1.06,113.08 0.96,113.09 0.85,113.07 0.75,113.05 0.66,112.99 0.57,112.94 0.50,112.86 0.43,112.78 0.39,112.68 0.35,112.58 0.35,112.47 0.34,112.37 0.37,112.26 0.40,112.16 0.46,112.07 0.52,111.99 0.60,111.92 0.69,111.86 0.79,111.82 0.89,111.79 0.99,111.79 1.10,111.79 1.20,111.82 1.30,111.86 1.39,111.92 1.47,111.99 1.53,112.07 1.59,112.16 1.62,112.26 1.65,112.37 1.64,112.47 1.64,112.58 1.60,112.68 1.56,112.78 1.49,112.86 1.42,112.94 1.33,112.99 1.24,113.05 1.13,113.07 1.03,113.09 0.92,113.08 0.82,113.07 0.72,113.03 0.63,112.98 0.55,112.91 0.47,112.84 0.42,112.74 0.37,112.65 0.35,112.54 0.34,112.44 0.34,112.44 0.34,112.44 0.02,109.36 -0.29,106.27 -0.44,99.02 -0.59,91.77 -0.61,84.17 -0.62,76.57 -0.63,67.49 -0.64,58.41 -0.66,48.54 -0.67,38.68 -0.71,28.99 -0.76,19.31 -0.85,11.50 -0.94,3.70 -1.01,1.94 -1.09,0.18 -1.09,0.04 -1.10,-0.08 -1.07,-0.21 -1.05,-0.34 -0.99,-0.46 -0.93,-0.58 -0.85,-0.69 -0.77,-0.79 -0.66,-0.87 -0.55,-0.95 -0.43,-1.00 -0.31,-1.06 -0.18,-1.08 -0.04,-1.10 0.08,-1.09 0.21,-1.08 0.34,-1.04 0.47,-1.00 0.58,-0.93 0.69,-0.86 0.78,-0.76 0.88,-0.66 0.94,-0.55 1.01,-0.43 1.05,-0.30 1.09,-0.18 1.09,-0.18 L 1.09,-0.18 Z"></path></g><g transform="translate(436 146) rotate(0 8 63.5)" stroke="none"><path fill="#2f9e44" d="M 0,-0.70 Q 0,-0.70 1.72,-0.99 3.44,-1.28 4.76,-1.29 6.07,-1.30 8.51,-0.72 10.95,-0.15 13.36,0.38 15.77,0.91 17.91,2.39 20.05,3.87 21.34,5.77 22.63,7.67 23.48,10.37 24.34,13.07 23.24,17.08 22.14,21.10 20.14,24.28 18.14,27.46 15.17,30.05 12.20,32.64 8.83,34.36 5.46,36.08 1.88,36.84 -1.68,37.60 -5.32,37.62 -8.95,37.64 -11.35,36.65 -13.76,35.66 -14.63,33.97 -15.49,32.28 -14.67,30.83 -13.85,29.38 -10.93,28.77 -8.01,28.15 -5.05,28.26 -2.10,28.37 1.16,28.71 4.42,29.05 7.71,30.38 11.01,31.71 13.88,33.44 16.76,35.18 19.58,38.33 22.39,41.49 23.65,44.48 24.91,47.47 24.53,50.52 24.15,53.58 22.05,55.94 19.96,58.30 15.43,60.18 10.91,62.07 6.63,62.84 2.36,63.60 -1.17,63.92 -4.72,64.23 -7.78,64.06 -10.84,63.90 -12.99,62.83 -15.13,61.77 -15.57,61.10 -16.01,60.43 -16.17,60.32 -16.33,60.21 -16.46,60.07 -16.59,59.93 -16.68,59.76 -16.77,59.59 -16.82,59.40 -16.87,59.21 -16.87,59.02 -16.87,58.83 -16.83,58.64 -16.78,58.45 -16.70,58.28 -16.61,58.11 -16.48,57.96 -16.36,57.81 -16.20,57.70 -16.04,57.59 -15.86,57.52 -15.68,57.45 -15.49,57.43 -15.30,57.40 -15.10,57.42 -14.91,57.44 -14.73,57.51 -14.55,57.58 -14.35,57.04 -14.14,56.51 -11.72,56.20 -9.30,55.89 -5.97,56.07 -2.65,56.26 2.26,57.21 7.17,58.17 11.35,59.75 15.52,61.33 19.06,63.16 22.60,65.00 25.09,67.02 27.58,69.03 28.79,71.62 30.00,74.21 29.57,76.78 29.14,79.36 26.17,82.34 23.21,85.33 19.53,87.16 15.85,88.99 11.93,90.05 8.01,91.11 3.74,91.85 -0.52,92.58 -3.88,92.60 -7.25,92.62 -9.43,92.00 -11.61,91.38 -13.10,90.09 -14.59,88.80 -14.48,87.02 -14.37,85.25 -12.96,84.11 -11.54,82.98 -9.11,82.27 -6.67,81.56 -3.29,81.27 0.08,80.98 3.91,81.44 7.73,81.90 12.30,83.26 16.86,84.61 20.32,86.37 23.78,88.13 26.25,90.40 28.71,92.67 30.37,94.84 32.03,97.02 32.84,100.19 33.66,103.36 33.67,106.22 33.69,109.09 32.79,111.92 31.88,114.76 29.96,117.51 28.05,120.25 25.70,122.34 23.35,124.43 20.15,125.70 16.95,126.96 13.21,127.48 9.47,128.00 6.47,128.20 3.47,128.41 0.93,128.20 -1.59,128.00 -3.37,127.54 -5.15,127.09 -6.51,125.09 -7.87,123.09 -7.92,123.00 -7.98,122.91 -8.01,122.81 -8.04,122.71 -8.04,122.60 -8.03,122.49 -7.99,122.40 -7.95,122.30 -7.88,122.22 -7.81,122.14 -7.72,122.08 -7.63,122.03 -7.53,122.00 -7.42,121.98 -7.32,121.99 -7.21,122.00 -7.12,122.05 -7.02,122.09 -6.94,122.17 -6.87,122.24 -6.82,122.33 -6.77,122.43 -6.75,122.53 -6.73,122.64 -6.75,122.74 -6.77,122.85 -6.82,122.94 -6.87,123.03 -6.94,123.11 -7.02,123.18 -7.12,123.22 -7.21,123.27 -7.32,123.28 -7.42,123.29 -7.53,123.27 -7.63,123.25 -7.72,123.19 -7.81,123.14 -7.88,123.06 -7.95,122.97 -7.99,122.88 -8.03,122.78 -8.04,122.67 -8.04,122.56 -8.01,122.46 -7.98,122.36 -7.92,122.27 -7.86,122.18 -7.78,122.12 -7.70,122.06 -7.59,122.02 -7.49,121.99 -7.39,121.99 -7.28,121.99 -7.18,122.02 -7.08,122.06 -7.00,122.12 -6.91,122.19 -6.91,122.19 -6.91,122.19 -5.52,123.10 -4.12,124.01 -2.71,124.30 -1.30,124.59 0.97,124.79 3.24,124.99 6.13,124.79 9.02,124.59 12.39,124.17 15.76,123.75 18.46,122.79 21.16,121.83 23.22,120.04 25.28,118.26 26.98,115.94 28.67,113.63 29.50,111.33 30.32,109.02 30.36,106.55 30.40,104.08 29.90,101.46 29.40,98.84 27.98,96.88 26.56,94.91 24.47,92.84 22.38,90.77 19.19,89.08 16.01,87.40 11.69,86.06 7.37,84.72 3.84,84.26 0.30,83.80 -2.80,84.05 -5.92,84.29 -7.95,84.84 -9.98,85.38 -10.95,85.85 -11.92,86.32 -12.01,86.96 -12.11,87.60 -11.37,87.94 -10.63,88.29 -8.93,88.80 -7.22,89.32 -4.15,89.31 -1.07,89.30 3.04,88.60 7.16,87.91 10.79,86.96 14.42,86.01 17.71,84.46 20.99,82.92 23.57,80.66 26.15,78.40 26.61,76.76 27.07,75.12 26.30,73.20 25.53,71.28 23.36,69.46 21.20,67.64 17.83,65.86 14.47,64.08 10.53,62.56 6.60,61.04 1.89,60.12 -2.82,59.19 -5.89,59.01 -8.97,58.83 -10.81,59.01 -12.64,59.19 -14.33,59.81 -16.01,60.43 -16.17,60.32 -16.33,60.21 -16.46,60.07 -16.59,59.93 -16.68,59.76 -16.77,59.59 -16.82,59.40 -16.87,59.21 -16.87,59.02 -16.87,58.83 -16.83,58.64 -16.79,58.45 -16.70,58.28 -16.61,58.11 -16.48,57.96 -16.36,57.81 -16.20,57.70 -16.04,57.59 -15.86,57.52 -15.68,57.45 -15.49,57.43 -15.30,57.40 -15.10,57.42 -14.91,57.44 -14.73,57.51 -14.55,57.58 -14.02,58.27 -13.50,58.97 -12.02,59.76 -10.54,60.56 -7.78,60.71 -5.01,60.85 -1.61,60.55 1.77,60.25 5.72,59.58 9.66,58.90 13.64,57.39 17.63,55.88 19.31,54.31 21.00,52.74 21.40,50.61 21.80,48.47 20.85,46.02 19.90,43.57 17.50,40.68 15.10,37.79 12.47,36.12 9.85,34.46 6.97,33.21 4.08,31.95 0.93,31.62 -2.21,31.29 -4.88,31.18 -7.55,31.07 -9.76,31.28 -11.96,31.49 -12.08,32.18 -12.20,32.88 -10.52,33.61 -8.85,34.35 -5.58,34.36 -2.32,34.38 0.85,33.77 4.03,33.17 7.09,31.69 10.14,30.20 12.82,27.96 15.50,25.72 17.33,22.93 19.16,20.15 20.30,16.90 21.43,13.64 20.79,11.42 20.14,9.19 19.26,7.62 18.37,6.05 16.74,4.78 15.10,3.50 12.70,2.97 10.30,2.45 8.17,1.87 6.05,1.30 4.75,1.29 3.44,1.28 1.72,0.99 0,0.70 -0.08,0.69 -0.16,0.68 -0.24,0.65 -0.32,0.62 -0.39,0.57 -0.46,0.52 -0.52,0.46 -0.58,0.40 -0.62,0.32 -0.66,0.25 -0.68,0.16 -0.70,0.08 -0.70,-0.00 -0.70,-0.08 -0.68,-0.16 -0.66,-0.25 -0.62,-0.32 -0.58,-0.40 -0.52,-0.46 -0.46,-0.52 -0.39,-0.57 -0.32,-0.62 -0.24,-0.65 -0.16,-0.68 -0.08,-0.69 0.00,-0.70 0.00,-0.70 L 0,-0.70 Z"></path></g><g transform="translate(64 237) rotate(0 0 60)" stroke="none"><path fill="#e03131" d="M 1.00,0 Q 1.00,0 1.29,3.16 1.58,6.32 1.59,12.55 1.59,18.78 1.59,24.59 1.59,30.40 1.31,44.97 1.02,59.53 0.90,71.16 0.77,82.80 0.97,91.46 1.16,100.11 1.16,105.81 1.16,111.51 1.28,113.94 1.41,116.37 1.40,116.47 1.39,116.58 1.34,116.68 1.30,116.77 1.23,116.85 1.16,116.93 1.06,116.98 0.97,117.03 0.87,117.05 0.76,117.07 0.66,117.05 0.55,117.04 0.46,116.99 0.36,116.94 0.29,116.86 0.21,116.79 0.17,116.69 0.12,116.60 0.11,116.49 0.10,116.38 0.12,116.28 0.14,116.18 0.19,116.08 0.25,115.99 0.33,115.92 0.41,115.85 0.50,115.81 0.60,115.77 0.71,115.76 0.81,115.76 0.92,115.78 1.02,115.81 1.11,115.87 1.20,115.93 1.26,116.01 1.33,116.10 1.36,116.20 1.40,116.30 1.40,116.40 1.40,116.51 1.37,116.61 1.34,116.71 1.27,116.80 1.21,116.88 1.12,116.94 1.04,117.00 0.93,117.03 0.83,117.06 0.73,117.06 0.62,117.05 0.52,117.02 0.42,116.98 0.34,116.91 0.26,116.84 0.20,116.75 0.14,116.66 0.12,116.56 0.10,116.46 0.10,116.46 0.10,116.46 -0.10,114.03 -0.31,111.61 -1.08,105.90 -1.86,100.20 -2.14,91.48 -2.41,82.77 -2.29,71.11 -2.17,59.46 -1.88,44.93 -1.59,30.40 -1.59,24.59 -1.59,18.78 -1.59,12.55 -1.58,6.32 -1.29,3.16 -1.00,0 -0.99,-0.12 -0.97,-0.24 -0.93,-0.35 -0.89,-0.46 -0.82,-0.56 -0.75,-0.66 -0.66,-0.74 -0.57,-0.82 -0.46,-0.88 -0.35,-0.93 -0.23,-0.96 -0.12,-0.99 0.00,-0.99 0.12,-0.99 0.23,-0.96 0.35,-0.93 0.46,-0.88 0.57,-0.82 0.66,-0.74 0.75,-0.66 0.82,-0.56 0.89,-0.46 0.93,-0.35 0.97,-0.24 0.99,-0.12 1.00,0.00 1.00,0.00 L 1.00,0 Z"></path></g><g transform="translate(60 364) rotate(0 192 -7)" stroke="none"><path fill="#e03131" d="M -0.28,-1.27 Q -0.28,-1.27 2.28,-1.91 4.86,-2.55 10.90,-3.42 16.94,-4.30 22.37,-4.95 27.80,-5.61 41.36,-6.49 54.91,-7.37 67.01,-7.74 79.10,-8.11 91.70,-8.55 104.30,-8.99 118.02,-9.18 131.73,-9.37 152.20,-10.06 172.66,-10.74 191.99,-11.61 211.32,-12.47 229.90,-13.12 248.48,-13.77 266.44,-14.32 284.40,-14.86 304.98,-15.09 325.57,-15.32 342.37,-15.22 359.16,-15.12 366.30,-14.86 373.44,-14.59 373.55,-14.57 373.65,-14.55 373.75,-14.51 373.84,-14.46 373.91,-14.38 373.99,-14.30 374.03,-14.21 374.08,-14.11 374.09,-14.00 374.10,-13.90 374.08,-13.80 374.06,-13.69 374.00,-13.60 373.95,-13.51 373.87,-13.44 373.79,-13.37 373.69,-13.33 373.59,-13.29 373.48,-13.28 373.38,-13.28 373.28,-13.31 373.17,-13.33 373.09,-13.39 373.00,-13.45 372.93,-13.54 372.87,-13.62 372.83,-13.72 372.80,-13.82 372.80,-13.93 372.80,-14.03 372.83,-14.13 372.86,-14.24 372.93,-14.32 372.99,-14.41 373.08,-14.47 373.17,-14.53 373.27,-14.55 373.37,-14.58 373.48,-14.58 373.58,-14.57 373.68,-14.53 373.78,-14.50 373.86,-14.43 373.94,-14.36 374.00,-14.27 374.05,-14.18 374.08,-14.07 374.10,-13.97 374.09,-13.86 374.08,-13.76 374.04,-13.66 373.99,-13.57 373.92,-13.49 373.85,-13.41 373.75,-13.36 373.66,-13.31 373.55,-13.29 373.45,-13.27 373.45,-13.27 373.45,-13.27 366.31,-12.92 359.18,-12.57 342.39,-12.26 325.61,-11.96 305.06,-11.71 284.51,-11.46 266.55,-10.88 248.60,-10.30 230.04,-9.65 211.48,-8.99 192.12,-8.15 172.77,-7.31 152.27,-6.69 131.77,-6.06 118.10,-5.88 104.42,-5.70 91.81,-5.26 79.20,-4.82 67.16,-4.47 55.12,-4.12 41.64,-3.31 28.17,-2.50 22.76,-1.89 17.35,-1.27 11.42,-0.50 5.48,0.25 2.88,0.76 0.28,1.27 0.12,1.28 -0.03,1.30 -0.18,1.28 -0.34,1.25 -0.48,1.20 -0.63,1.14 -0.76,1.04 -0.88,0.95 -0.98,0.83 -1.09,0.71 -1.16,0.57 -1.23,0.43 -1.26,0.28 -1.29,0.12 -1.29,-0.02 -1.29,-0.18 -1.25,-0.33 -1.20,-0.49 -1.13,-0.62 -1.05,-0.76 -0.94,-0.88 -0.84,-0.99 -0.71,-1.08 -0.57,-1.16 -0.43,-1.22 -0.28,-1.27 -0.28,-1.27 L -0.28,-1.27 Z"></path></g><g transform="translate(447 275) rotate(0 -0.5 39.5)" stroke="none"><path fill="#e03131" d="M 1.16,-0.08 Q 1.16,-0.08 1.66,3.63 2.15,7.35 1.72,15.94 1.29,24.53 0.82,32.46 0.34,40.39 0.14,47.18 -0.05,53.97 -0.15,58.87 -0.25,63.76 0.06,68.06 0.39,72.37 0.35,74.26 0.31,76.16 0.30,76.27 0.30,76.37 0.26,76.47 0.22,76.57 0.16,76.65 0.09,76.73 0.00,76.79 -0.08,76.85 -0.19,76.87 -0.29,76.89 -0.39,76.88 -0.50,76.87 -0.60,76.83 -0.69,76.79 -0.77,76.72 -0.85,76.64 -0.90,76.55 -0.95,76.46 -0.97,76.35 -0.99,76.25 -0.97,76.14 -0.96,76.04 -0.91,75.94 -0.86,75.85 -0.79,75.77 -0.71,75.70 -0.61,75.65 -0.52,75.61 -0.41,75.60 -0.31,75.58 -0.20,75.60 -0.10,75.63 -0.01,75.68 0.08,75.73 0.15,75.81 0.21,75.89 0.26,75.99 0.30,76.09 0.30,76.20 0.31,76.30 0.28,76.40 0.26,76.51 0.20,76.60 0.14,76.68 0.06,76.75 -0.02,76.82 -0.12,76.85 -0.22,76.89 -0.32,76.89 -0.43,76.89 -0.53,76.86 -0.63,76.82 -0.72,76.76 -0.80,76.70 -0.86,76.61 -0.93,76.52 -0.96,76.42 -0.98,76.32 -0.98,76.32 -0.98,76.32 -1.48,74.49 -1.98,72.66 -2.73,68.18 -3.48,63.71 -3.41,58.79 -3.33,53.87 -3.13,47.03 -2.92,40.19 -2.44,32.27 -1.95,24.36 -1.48,15.97 -1.00,7.59 -1.08,3.84 -1.16,0.08 -1.16,-0.05 -1.15,-0.19 -1.11,-0.32 -1.07,-0.46 -1.00,-0.58 -0.93,-0.70 -0.83,-0.80 -0.73,-0.91 -0.61,-0.98 -0.49,-1.06 -0.36,-1.10 -0.22,-1.14 -0.08,-1.15 0.05,-1.17 0.19,-1.14 0.33,-1.12 0.45,-1.06 0.58,-1.01 0.70,-0.92 0.81,-0.84 0.90,-0.73 0.99,-0.62 1.05,-0.49 1.11,-0.36 1.14,-0.22 1.16,-0.08 1.16,-0.08 L 1.16,-0.08 Z"></path></g><g transform="translate(117 153) rotate(0 2 47.5)" stroke="none"><path fill="#1971c2" d="M 1.21,0 Q 1.21,0 1.38,2.29 1.55,4.59 1.87,8.09 2.19,11.59 2.34,20.35 2.50,29.11 2.56,37.12 2.63,45.14 2.65,52.57 2.67,60.01 2.67,66.33 2.68,72.65 2.91,77.59 3.14,82.53 3.60,86.03 4.06,89.52 4.13,91.08 4.20,92.63 4.20,92.74 4.21,92.85 4.18,92.95 4.15,93.05 4.08,93.14 4.02,93.22 3.94,93.29 3.85,93.35 3.75,93.38 3.65,93.41 3.54,93.41 3.44,93.41 3.34,93.37 3.24,93.33 3.15,93.27 3.07,93.20 3.01,93.11 2.95,93.02 2.93,92.92 2.90,92.82 2.91,92.71 2.92,92.60 2.96,92.51 3.00,92.41 3.07,92.33 3.14,92.25 3.23,92.20 3.33,92.15 3.43,92.12 3.54,92.10 3.64,92.12 3.75,92.13 3.84,92.18 3.94,92.23 4.01,92.30 4.09,92.38 4.14,92.47 4.18,92.57 4.20,92.67 4.21,92.78 4.19,92.88 4.17,92.98 4.12,93.08 4.07,93.17 3.99,93.24 3.91,93.31 3.81,93.35 3.72,93.40 3.61,93.41 3.51,93.42 3.40,93.39 3.30,93.36 3.21,93.31 3.12,93.25 3.05,93.17 2.99,93.09 2.95,92.99 2.91,92.89 2.91,92.89 2.91,92.89 2.39,91.42 1.86,89.95 0.93,86.34 -0.00,82.72 -0.35,77.69 -0.71,72.65 -0.72,66.34 -0.74,60.02 -0.76,52.59 -0.78,45.16 -0.82,37.16 -0.86,29.15 -0.95,20.50 -1.04,11.86 -1.29,8.23 -1.55,4.60 -1.38,2.30 -1.21,0 -1.20,-0.14 -1.18,-0.29 -1.13,-0.42 -1.07,-0.56 -0.99,-0.68 -0.91,-0.80 -0.80,-0.90 -0.69,-1.00 -0.56,-1.07 -0.43,-1.13 -0.28,-1.17 -0.14,-1.20 0.00,-1.20 0.14,-1.20 0.28,-1.17 0.43,-1.13 0.56,-1.07 0.69,-1.00 0.80,-0.90 0.91,-0.80 0.99,-0.68 1.07,-0.56 1.13,-0.42 1.18,-0.29 1.20,-0.14 1.21,0.00 1.21,0.00 L 1.21,0 Z"></path></g><g transform="translate(111 232) rotate(0 8.5 8)" stroke="none"><path fill="#1971c2" d="M 1.06,-0.35 Q 1.06,-0.35 1.87,1.29 2.67,2.94 3.23,4.85 3.78,6.77 4.32,9.04 4.85,11.31 5.60,12.98 6.35,14.64 7.16,15.83 7.98,17.02 8.46,17.34 8.94,17.66 10.31,15.50 11.68,13.33 12.78,10.81 13.88,8.29 14.37,5.63 14.87,2.97 15.54,0.10 16.21,-2.76 16.24,-2.86 16.27,-2.96 16.33,-3.05 16.39,-3.14 16.47,-3.20 16.55,-3.27 16.65,-3.30 16.75,-3.34 16.86,-3.34 16.97,-3.34 17.07,-3.31 17.17,-3.28 17.25,-3.21 17.34,-3.15 17.40,-3.06 17.46,-2.98 17.49,-2.87 17.52,-2.77 17.52,-2.66 17.51,-2.56 17.47,-2.46 17.43,-2.36 17.37,-2.28 17.30,-2.20 17.21,-2.14 17.12,-2.09 17.01,-2.06 16.91,-2.04 16.80,-2.05 16.70,-2.06 16.60,-2.10 16.51,-2.15 16.43,-2.22 16.35,-2.29 16.30,-2.38 16.25,-2.48 16.23,-2.58 16.21,-2.69 16.23,-2.79 16.24,-2.90 16.29,-2.99 16.34,-3.08 16.42,-3.16 16.49,-3.23 16.59,-3.28 16.69,-3.32 16.79,-3.34 16.90,-3.35 17.00,-3.33 17.10,-3.31 17.20,-3.25 17.29,-3.20 17.36,-3.12 17.43,-3.04 17.47,-2.94 17.51,-2.84 17.51,-2.73 17.52,-2.63 17.52,-2.63 17.52,-2.63 17.62,0.40 17.71,3.44 17.26,6.47 16.80,9.51 15.67,12.27 14.53,15.02 12.91,17.46 11.30,19.90 9.75,20.27 8.20,20.64 6.76,19.82 5.31,18.99 4.31,17.49 3.30,15.99 2.46,14.02 1.62,12.06 1.13,9.86 0.64,7.65 0.13,5.80 -0.37,3.95 -0.72,2.15 -1.06,0.35 -1.09,0.22 -1.11,0.08 -1.11,-0.04 -1.10,-0.18 -1.06,-0.31 -1.03,-0.44 -0.96,-0.55 -0.89,-0.67 -0.80,-0.77 -0.70,-0.86 -0.59,-0.94 -0.48,-1.01 -0.35,-1.05 -0.22,-1.09 -0.08,-1.11 0.04,-1.12 0.17,-1.09 0.31,-1.07 0.43,-1.02 0.56,-0.97 0.66,-0.89 0.77,-0.80 0.86,-0.70 0.94,-0.59 1.00,-0.47 1.06,-0.35 1.06,-0.35 L 1.06,-0.35 Z"></path></g><g transform="translate(135 219) rotate(0 12.5 -8.5)" stroke="none"><path fill="#1971c2" d="M -1.03,-0.73 Q -1.03,-0.73 0.26,-2.84 1.57,-4.94 2.39,-6.81 3.21,-8.68 3.84,-10.87 4.47,-13.05 4.74,-15.61 5.00,-18.17 5.12,-19.59 5.24,-21.01 5.29,-21.90 5.34,-22.80 5.38,-22.99 5.42,-23.18 5.50,-23.35 5.58,-23.52 5.71,-23.67 5.83,-23.81 5.98,-23.93 6.13,-24.04 6.31,-24.12 6.48,-24.19 6.67,-24.22 6.86,-24.25 7.05,-24.24 7.24,-24.22 7.42,-24.16 7.60,-24.10 7.76,-23.99 7.92,-23.89 8.06,-23.75 8.19,-23.62 8.28,-23.45 8.38,-23.28 8.43,-23.10 8.48,-22.92 8.49,-22.73 8.50,-22.54 7.70,-21.56 6.91,-20.58 6.58,-19.50 6.26,-18.42 5.77,-16.76 5.29,-15.10 5.10,-13.07 4.91,-11.05 4.82,-8.74 4.73,-6.43 5.24,-3.88 5.76,-1.34 6.51,0.53 7.26,2.41 8.03,3.35 8.80,4.30 9.24,4.60 9.69,4.91 10.55,4.32 11.42,3.73 12.36,2.51 13.30,1.30 14.04,-0.28 14.78,-1.87 15.44,-3.95 16.11,-6.04 16.41,-8.04 16.72,-10.03 16.71,-11.75 16.70,-13.47 16.44,-14.34 16.18,-15.20 16.18,-15.75 16.18,-16.29 15.94,-16.53 15.69,-16.77 15.69,-16.94 15.69,-17.10 15.72,-17.27 15.76,-17.43 15.83,-17.58 15.91,-17.73 16.02,-17.85 16.12,-17.98 16.26,-18.08 16.39,-18.17 16.55,-18.24 16.70,-18.30 16.87,-18.32 17.03,-18.34 17.20,-18.33 17.36,-18.31 17.52,-18.26 17.68,-18.20 17.82,-18.11 17.95,-18.02 18.07,-17.89 18.18,-17.77 18.26,-17.62 18.34,-17.48 18.38,-17.32 18.43,-17.16 18.16,-15.48 17.90,-13.80 17.81,-11.86 17.72,-9.92 17.70,-7.65 17.67,-5.38 18.22,-3.17 18.76,-0.95 19.74,0.69 20.72,2.34 22.53,4.05 24.35,5.77 24.42,5.84 24.50,5.91 24.55,6.00 24.60,6.10 24.62,6.20 24.64,6.31 24.62,6.41 24.60,6.52 24.55,6.61 24.50,6.71 24.43,6.78 24.35,6.85 24.25,6.90 24.16,6.94 24.05,6.95 23.95,6.97 23.84,6.94 23.74,6.92 23.65,6.87 23.56,6.81 23.49,6.73 23.42,6.65 23.38,6.55 23.34,6.45 23.33,6.35 23.33,6.24 23.35,6.14 23.38,6.04 23.44,5.95 23.50,5.86 23.59,5.79 23.67,5.73 23.77,5.70 23.87,5.66 23.98,5.66 24.08,5.66 24.19,5.70 24.29,5.73 24.37,5.79 24.46,5.86 24.52,5.95 24.58,6.03 24.60,6.14 24.63,6.24 24.63,6.34 24.62,6.45 24.58,6.55 24.54,6.65 24.47,6.73 24.41,6.81 24.31,6.86 24.22,6.92 24.12,6.94 24.02,6.97 23.91,6.95 23.81,6.94 23.71,6.90 23.61,6.85 23.61,6.85 23.61,6.85 20.82,5.46 18.02,4.07 16.81,1.94 15.60,-0.19 15.04,-2.81 14.48,-5.43 14.57,-7.77 14.65,-10.12 14.82,-12.27 14.99,-14.42 15.34,-15.59 15.69,-16.77 15.69,-16.94 15.69,-17.10 15.72,-17.27 15.76,-17.43 15.83,-17.58 15.91,-17.73 16.02,-17.85 16.12,-17.98 16.26,-18.08 16.39,-18.17 16.55,-18.24 16.70,-18.30 16.87,-18.32 17.03,-18.34 17.20,-18.33 17.36,-18.31 17.52,-18.26 17.68,-18.20 17.82,-18.11 17.95,-18.02 18.07,-17.89 18.18,-17.77 18.26,-17.62 18.34,-17.48 18.38,-17.32 18.43,-17.16 18.27,-17.35 18.11,-17.55 18.31,-16.65 18.52,-15.75 18.74,-14.55 18.97,-13.36 18.74,-11.58 18.50,-9.81 18.29,-7.65 18.07,-5.49 17.52,-3.21 16.96,-0.93 16.18,0.99 15.40,2.91 14.10,4.56 12.81,6.20 11.13,6.92 9.45,7.64 7.97,6.97 6.48,6.30 5.42,4.95 4.36,3.60 3.51,1.44 2.65,-0.72 2.09,-3.63 1.53,-6.54 1.63,-8.95 1.72,-11.36 1.97,-13.68 2.21,-15.99 2.74,-17.78 3.28,-19.57 4.31,-21.19 5.34,-22.80 5.38,-22.99 5.42,-23.18 5.50,-23.35 5.58,-23.52 5.71,-23.67 5.83,-23.81 5.98,-23.93 6.13,-24.04 6.31,-24.12 6.48,-24.19 6.67,-24.22 6.86,-24.25 7.05,-24.24 7.24,-24.22 7.42,-24.16 7.60,-24.10 7.76,-23.99 7.92,-23.89 8.06,-23.75 8.19,-23.62 8.28,-23.45 8.38,-23.28 8.43,-23.10 8.48,-22.92 8.49,-22.73 8.50,-22.54 8.45,-21.64 8.39,-20.74 8.27,-19.29 8.15,-17.84 7.85,-15.00 7.54,-12.17 6.83,-9.77 6.13,-7.38 5.15,-5.24 4.17,-3.10 2.60,-1.18 1.03,0.73 0.93,0.85 0.82,0.96 0.69,1.04 0.57,1.13 0.42,1.18 0.28,1.23 0.13,1.25 -0.02,1.27 -0.17,1.24 -0.32,1.22 -0.46,1.17 -0.60,1.11 -0.73,1.02 -0.85,0.93 -0.95,0.82 -1.05,0.70 -1.12,0.56 -1.19,0.43 -1.22,0.28 -1.26,0.13 -1.26,-0.02 -1.25,-0.17 -1.21,-0.32 -1.18,-0.46 -1.10,-0.60 -1.03,-0.73 -1.03,-0.73 L -1.03,-0.73 Z"></path></g><g transform="translate(491 158) rotate(0 3 52)" stroke="none"><path fill="#1971c2" d="M 1.32,0 Q 1.32,0 1.47,2.01 1.62,4.02 1.65,8.04 1.69,12.06 1.99,18.32 2.29,24.59 2.72,32.44 3.14,40.29 3.61,47.93 4.07,55.58 4.85,64.56 5.63,73.54 5.96,79.98 6.29,86.42 6.70,90.25 7.12,94.07 7.25,96.62 7.39,99.16 7.00,101.14 6.60,103.11 6.59,103.21 6.58,103.32 6.54,103.41 6.49,103.51 6.42,103.59 6.35,103.67 6.25,103.72 6.16,103.77 6.05,103.78 5.95,103.80 5.84,103.78 5.74,103.77 5.64,103.72 5.55,103.67 5.48,103.59 5.40,103.51 5.36,103.42 5.31,103.32 5.30,103.22 5.29,103.11 5.31,103.01 5.34,102.90 5.39,102.81 5.44,102.72 5.53,102.65 5.61,102.58 5.71,102.54 5.80,102.50 5.91,102.50 6.02,102.49 6.12,102.52 6.22,102.55 6.31,102.61 6.40,102.67 6.46,102.75 6.53,102.84 6.56,102.94 6.59,103.04 6.59,103.14 6.59,103.25 6.56,103.35 6.53,103.45 6.46,103.54 6.40,103.62 6.31,103.68 6.22,103.74 6.12,103.77 6.02,103.80 5.91,103.79 5.81,103.79 5.71,103.75 5.61,103.71 5.53,103.64 5.45,103.57 5.39,103.48 5.34,103.39 5.31,103.29 5.29,103.18 5.29,103.18 5.29,103.18 4.68,101.29 4.06,99.41 3.84,96.93 3.61,94.46 3.17,90.53 2.73,86.61 2.40,80.22 2.08,73.84 1.31,64.82 0.55,55.79 0.10,48.13 -0.35,40.47 -0.75,32.61 -1.14,24.75 -1.42,18.40 -1.69,12.06 -1.65,8.04 -1.62,4.02 -1.47,2.01 -1.32,0 -1.31,-0.15 -1.29,-0.31 -1.23,-0.46 -1.17,-0.61 -1.08,-0.74 -0.99,-0.88 -0.87,-0.98 -0.75,-1.09 -0.61,-1.16 -0.47,-1.24 -0.31,-1.28 -0.16,-1.31 0.00,-1.31 0.16,-1.31 0.31,-1.28 0.47,-1.24 0.61,-1.16 0.75,-1.09 0.87,-0.98 0.99,-0.88 1.08,-0.74 1.17,-0.61 1.23,-0.46 1.29,-0.31 1.31,-0.15 1.32,0.00 1.32,0.00 L 1.32,0 Z"></path></g><g transform="translate(485 246) rotate(0 12.5 13.5)" stroke="none"><path fill="#1971c2" d="M 1.00,-0.40 Q 1.00,-0.40 1.84,0.93 2.68,2.26 3.26,4.40 3.84,6.54 4.37,8.88 4.90,11.21 5.69,13.86 6.47,16.51 7.06,18.15 7.65,19.79 9.40,21.34 11.15,22.90 12.56,23.28 13.96,23.66 15.19,22.57 16.42,21.48 17.83,18.68 19.24,15.87 20.19,12.69 21.14,9.51 22.53,5.97 23.92,2.44 23.97,2.34 24.01,2.24 24.08,2.16 24.16,2.09 24.25,2.04 24.34,1.99 24.45,1.97 24.55,1.95 24.66,1.97 24.76,1.98 24.86,2.03 24.95,2.08 25.03,2.16 25.10,2.24 25.14,2.33 25.19,2.43 25.20,2.53 25.21,2.64 25.19,2.74 25.17,2.85 25.11,2.94 25.06,3.03 24.98,3.10 24.90,3.17 24.80,3.21 24.70,3.25 24.60,3.25 24.49,3.26 24.39,3.23 24.28,3.20 24.20,3.15 24.11,3.09 24.04,3.00 23.98,2.92 23.94,2.82 23.91,2.72 23.91,2.61 23.91,2.50 23.94,2.40 23.98,2.30 24.04,2.22 24.10,2.13 24.19,2.07 24.28,2.01 24.38,1.98 24.48,1.95 24.59,1.96 24.69,1.97 24.79,2.00 24.89,2.04 24.97,2.11 25.06,2.18 25.11,2.27 25.17,2.36 25.19,2.46 25.21,2.57 25.20,2.67 25.19,2.78 25.19,2.78 25.19,2.78 24.60,6.56 24.01,10.34 23.03,13.82 22.05,17.30 20.28,20.71 18.51,24.11 16.32,25.46 14.12,26.81 11.54,26.17 8.96,25.52 6.73,23.31 4.50,21.10 3.83,19.29 3.17,17.48 2.37,14.72 1.57,11.95 1.07,9.67 0.58,7.39 0.09,5.44 -0.38,3.48 -0.69,1.94 -1.00,0.40 -1.03,0.27 -1.06,0.14 -1.07,0.01 -1.07,-0.11 -1.04,-0.23 -1.01,-0.36 -0.95,-0.48 -0.89,-0.59 -0.81,-0.69 -0.73,-0.79 -0.62,-0.87 -0.51,-0.94 -0.39,-0.99 -0.27,-1.04 -0.14,-1.06 -0.01,-1.07 0.11,-1.06 0.23,-1.05 0.36,-1.00 0.48,-0.96 0.59,-0.89 0.70,-0.82 0.78,-0.72 0.87,-0.62 0.94,-0.51 1.00,-0.40 1.00,-0.40 L 1.00,-0.40 Z"></path></g><g transform="translate(524 239) rotate(0 8.5 -7)" stroke="none"><path fill="#1971c2" d="M -0.46,-1.16 Q -0.46,-1.16 0.94,-1.80 2.35,-2.44 4.06,-3.28 5.77,-4.11 7.58,-5.29 9.39,-6.46 10.97,-7.79 12.56,-9.11 13.41,-10.41 14.27,-11.71 14.96,-12.31 15.65,-12.90 15.15,-14.00 14.65,-15.09 13.83,-15.45 13.01,-15.80 11.72,-15.70 10.43,-15.60 8.57,-14.75 6.71,-13.90 5.12,-12.74 3.53,-11.58 2.71,-10.11 1.90,-8.65 1.58,-7.02 1.26,-5.38 1.33,-4.08 1.41,-2.78 2.71,-1.63 4.00,-0.48 5.55,0.30 7.09,1.09 8.68,1.18 10.27,1.26 12.56,1.38 14.85,1.49 14.96,1.50 15.06,1.50 15.16,1.53 15.26,1.57 15.35,1.64 15.43,1.70 15.49,1.79 15.55,1.88 15.57,1.98 15.60,2.09 15.59,2.19 15.58,2.30 15.54,2.40 15.50,2.49 15.43,2.57 15.36,2.65 15.27,2.71 15.17,2.76 15.07,2.78 14.97,2.80 14.86,2.79 14.75,2.77 14.66,2.73 14.56,2.68 14.49,2.61 14.41,2.53 14.37,2.44 14.32,2.34 14.30,2.24 14.29,2.13 14.31,2.03 14.33,1.92 14.38,1.83 14.43,1.74 14.51,1.66 14.59,1.59 14.68,1.55 14.78,1.51 14.89,1.50 14.99,1.49 15.10,1.51 15.20,1.54 15.29,1.60 15.38,1.65 15.45,1.74 15.51,1.82 15.55,1.92 15.59,2.02 15.59,2.12 15.60,2.23 15.56,2.33 15.53,2.43 15.47,2.52 15.41,2.61 15.33,2.67 15.24,2.73 15.14,2.76 15.04,2.79 15.04,2.79 15.04,2.79 12.56,3.59 10.09,4.38 7.86,4.23 5.64,4.08 3.62,2.97 1.61,1.85 -0.04,-0.12 -1.70,-2.09 -1.83,-4.10 -1.96,-6.11 -1.39,-8.20 -0.83,-10.29 0.42,-12.17 1.68,-14.05 3.62,-15.35 5.57,-16.66 7.95,-17.54 10.34,-18.42 12.28,-18.34 14.23,-18.26 15.61,-17.31 17.00,-16.37 17.62,-14.39 18.23,-12.42 17.50,-11.21 16.77,-10.00 15.63,-8.40 14.50,-6.81 12.75,-5.38 10.99,-3.95 9.00,-2.70 7.01,-1.46 5.20,-0.65 3.39,0.14 1.92,0.65 0.46,1.16 0.31,1.20 0.17,1.24 0.02,1.24 -0.12,1.24 -0.27,1.21 -0.42,1.17 -0.55,1.11 -0.69,1.04 -0.80,0.94 -0.92,0.84 -1.01,0.72 -1.09,0.60 -1.15,0.46 -1.21,0.32 -1.23,0.17 -1.25,0.02 -1.23,-0.12 -1.22,-0.27 -1.17,-0.42 -1.11,-0.56 -1.03,-0.68 -0.95,-0.81 -0.84,-0.91 -0.73,-1.01 -0.59,-1.09 -0.46,-1.16 -0.46,-1.16 L -0.46,-1.16 Z"></path></g><g transform="translate(549 247) rotate(0 6.5 -7)" stroke="none"><path fill="#1971c2" d="M -1.06,-0.70 Q -1.06,-0.70 0.00,-2.47 1.07,-4.23 1.51,-5.89 1.96,-7.55 2.19,-9.12 2.41,-10.70 2.51,-11.69 2.61,-12.68 2.65,-12.83 2.69,-12.98 2.76,-13.11 2.83,-13.24 2.93,-13.36 3.03,-13.47 3.16,-13.56 3.28,-13.64 3.43,-13.70 3.57,-13.75 3.72,-13.77 3.87,-13.78 4.02,-13.77 4.17,-13.75 4.31,-13.69 4.45,-13.64 4.58,-13.55 4.70,-13.47 4.80,-13.35 4.90,-13.24 4.97,-13.10 5.04,-12.97 5.08,-12.82 5.12,-12.67 5.11,-12.52 5.11,-12.37 5.32,-11.38 5.52,-10.39 5.55,-9.13 5.57,-7.87 5.84,-6.65 6.11,-5.43 6.95,-4.27 7.78,-3.12 8.74,-2.72 9.69,-2.31 10.99,-1.97 12.28,-1.64 12.38,-1.62 12.49,-1.61 12.58,-1.56 12.68,-1.51 12.75,-1.44 12.83,-1.36 12.87,-1.26 12.92,-1.17 12.93,-1.06 12.95,-0.96 12.93,-0.85 12.91,-0.75 12.85,-0.66 12.80,-0.57 12.72,-0.49 12.64,-0.42 12.54,-0.38 12.45,-0.34 12.34,-0.33 12.23,-0.33 12.13,-0.35 12.03,-0.38 11.94,-0.44 11.85,-0.49 11.78,-0.58 11.72,-0.66 11.68,-0.76 11.65,-0.86 11.64,-0.97 11.64,-1.07 11.67,-1.17 11.70,-1.27 11.77,-1.36 11.83,-1.45 11.92,-1.51 12.00,-1.57 12.10,-1.60 12.21,-1.63 12.31,-1.63 12.42,-1.62 12.52,-1.59 12.62,-1.55 12.70,-1.48 12.78,-1.42 12.84,-1.33 12.90,-1.24 12.92,-1.13 12.95,-1.03 12.94,-0.92 12.93,-0.82 12.89,-0.72 12.84,-0.62 12.77,-0.54 12.70,-0.47 12.61,-0.41 12.51,-0.36 12.41,-0.34 12.31,-0.32 12.31,-0.32 12.31,-0.32 10.41,0.08 8.51,0.48 6.90,-0.34 5.30,-1.18 4.16,-2.93 3.02,-4.69 2.71,-6.26 2.40,-7.84 2.41,-9.09 2.42,-10.34 2.52,-11.51 2.61,-12.68 2.65,-12.83 2.69,-12.98 2.76,-13.11 2.83,-13.24 2.93,-13.36 3.03,-13.47 3.16,-13.56 3.28,-13.64 3.43,-13.70 3.57,-13.75 3.72,-13.77 3.87,-13.78 4.02,-13.77 4.17,-13.75 4.31,-13.69 4.45,-13.64 4.58,-13.55 4.70,-13.47 4.80,-13.35 4.90,-13.24 4.97,-13.10 5.04,-12.97 5.08,-12.82 5.12,-12.67 5.11,-12.52 5.11,-12.37 5.04,-11.37 4.96,-10.38 4.77,-8.62 4.59,-6.87 4.05,-4.77 3.52,-2.66 2.29,-0.97 1.06,0.70 0.96,0.82 0.86,0.94 0.73,1.03 0.61,1.11 0.46,1.17 0.32,1.23 0.17,1.25 0.02,1.27 -0.13,1.25 -0.28,1.24 -0.42,1.19 -0.57,1.13 -0.70,1.05 -0.83,0.96 -0.93,0.85 -1.03,0.74 -1.11,0.60 -1.18,0.47 -1.22,0.32 -1.26,0.17 -1.26,0.02 -1.26,-0.13 -1.23,-0.28 -1.19,-0.43 -1.13,-0.57 -1.06,-0.70 -1.06,-0.70 L -1.06,-0.70 Z"></path></g><g transform="translate(553 224) rotate(0 1.5 0.5)" stroke="none"><path fill="#1971c2" d="M 0.40,-1.22 Q 0.40,-1.22 1.17,-0.63 1.93,-0.04 2.02,0.00 2.12,0.05 2.19,0.12 2.26,0.20 2.31,0.30 2.35,0.39 2.36,0.50 2.38,0.60 2.35,0.71 2.33,0.81 2.28,0.90 2.22,0.99 2.14,1.06 2.06,1.13 1.96,1.17 1.86,1.21 1.76,1.22 1.65,1.22 1.55,1.19 1.45,1.17 1.36,1.11 1.27,1.05 1.21,0.96 1.14,0.88 1.11,0.78 1.07,0.68 1.07,0.57 1.07,0.47 1.11,0.36 1.14,0.26 1.20,0.18 1.27,0.09 1.35,0.03 1.44,-0.02 1.54,-0.04 1.65,-0.07 1.75,-0.07 1.86,-0.06 1.96,-0.02 2.06,0.01 2.14,0.07 2.22,0.14 2.27,0.23 2.33,0.33 2.35,0.43 2.38,0.53 2.36,0.64 2.35,0.74 2.31,0.84 2.26,0.94 2.19,1.01 2.12,1.09 2.03,1.14 1.93,1.19 1.83,1.21 1.72,1.23 1.62,1.21 1.51,1.19 1.51,1.19 1.51,1.19 0.55,1.21 -0.40,1.22 -0.55,1.16 -0.69,1.09 -0.81,0.99 -0.93,0.89 -1.02,0.77 -1.12,0.64 -1.18,0.50 -1.24,0.36 -1.26,0.20 -1.29,0.05 -1.28,-0.10 -1.26,-0.25 -1.22,-0.40 -1.17,-0.55 -1.08,-0.68 -1.00,-0.81 -0.89,-0.92 -0.77,-1.03 -0.64,-1.11 -0.50,-1.19 -0.35,-1.23 -0.20,-1.27 -0.05,-1.28 0.10,-1.29 0.25,-1.26 0.40,-1.22 0.40,-1.22 L 0.40,-1.22 Z"></path></g><g transform="translate(528 267) rotate(0 9.5 12.5)" stroke="none"><path fill="#1971c2" d="M 0.68,0 Q 0.68,0 1.17,2.01 1.66,4.02 1.67,6.03 1.67,8.03 1.68,10.32 1.68,12.61 1.68,15.31 1.68,18.01 1.68,19.73 1.67,21.45 1.66,22.47 1.65,23.49 1.63,23.69 1.60,23.88 1.53,24.07 1.46,24.26 1.35,24.42 1.23,24.59 1.09,24.72 0.94,24.85 0.76,24.94 0.58,25.04 0.39,25.09 0.19,25.13 -0.00,25.13 -0.19,25.13 -0.39,25.09 -0.58,25.04 -0.76,24.94 -0.94,24.85 -1.09,24.72 -1.24,24.59 -1.35,24.42 -1.46,24.26 -1.53,24.07 -1.60,23.88 -1.63,23.69 -1.65,23.49 -1.14,22.49 -0.64,21.50 -0.19,21.03 0.25,20.55 1.17,19.94 2.08,19.33 3.54,19.00 5.00,18.68 6.61,18.86 8.22,19.04 10.27,19.41 12.32,19.77 15.36,20.53 18.40,21.30 18.50,21.32 18.61,21.35 18.70,21.40 18.79,21.46 18.85,21.54 18.92,21.62 18.96,21.72 19.00,21.82 19.00,21.93 19.01,22.03 18.98,22.13 18.95,22.24 18.89,22.32 18.83,22.41 18.74,22.47 18.66,22.54 18.55,22.57 18.45,22.60 18.35,22.60 18.24,22.60 18.14,22.56 18.04,22.53 17.96,22.46 17.87,22.40 17.81,22.31 17.76,22.22 17.73,22.12 17.70,22.02 17.71,21.91 17.72,21.80 17.76,21.71 17.80,21.61 17.87,21.53 17.94,21.45 18.03,21.39 18.12,21.34 18.22,21.32 18.33,21.30 18.43,21.31 18.54,21.32 18.63,21.37 18.73,21.41 18.81,21.49 18.88,21.56 18.93,21.66 18.98,21.75 19.00,21.86 19.01,21.96 18.99,22.07 18.97,22.17 18.92,22.26 18.87,22.36 18.79,22.43 18.72,22.50 18.62,22.54 18.52,22.59 18.42,22.60 18.31,22.61 18.31,22.61 18.31,22.61 15.01,22.86 11.70,23.12 9.72,22.73 7.73,22.35 6.62,22.13 5.50,21.90 4.60,21.98 3.70,22.06 3.11,22.39 2.53,22.73 2.09,23.11 1.65,23.49 1.63,23.69 1.60,23.88 1.53,24.07 1.46,24.26 1.35,24.42 1.24,24.59 1.09,24.72 0.94,24.85 0.76,24.94 0.58,25.04 0.39,25.09 0.19,25.13 0.00,25.13 -0.19,25.13 -0.39,25.09 -0.58,25.04 -0.76,24.94 -0.94,24.85 -1.09,24.72 -1.23,24.59 -1.35,24.42 -1.46,24.26 -1.53,24.07 -1.60,23.88 -1.63,23.69 -1.65,23.49 -1.66,22.47 -1.67,21.45 -1.68,19.73 -1.68,18.01 -1.68,15.31 -1.68,12.61 -1.68,10.32 -1.67,8.03 -1.67,6.03 -1.66,4.02 -1.17,2.01 -0.68,0 -0.67,-0.08 -0.66,-0.16 -0.63,-0.24 -0.60,-0.31 -0.56,-0.38 -0.51,-0.45 -0.45,-0.51 -0.38,-0.56 -0.31,-0.60 -0.24,-0.64 -0.16,-0.66 -0.08,-0.68 0.00,-0.68 0.08,-0.68 0.16,-0.66 0.24,-0.64 0.31,-0.60 0.38,-0.56 0.45,-0.50 0.51,-0.45 0.56,-0.38 0.60,-0.31 0.63,-0.24 0.66,-0.16 0.67,-0.08 0.68,0.00 0.68,0.00 L 0.68,0 Z"></path></g><g transform="translate(530 279) rotate(0 4 -1.5)" stroke="none"><path fill="#1971c2" d="M -0.23,-1.19 Q -0.23,-1.19 1.15,-1.69 2.55,-2.19 4.88,-2.71 7.21,-3.23 7.31,-3.28 7.40,-3.33 7.51,-3.35 7.61,-3.36 7.72,-3.34 7.82,-3.32 7.91,-3.27 8.01,-3.22 8.08,-3.14 8.15,-3.07 8.19,-2.97 8.24,-2.87 8.25,-2.77 8.26,-2.66 8.23,-2.56 8.21,-2.45 8.15,-2.36 8.10,-2.27 8.01,-2.20 7.93,-2.14 7.83,-2.10 7.73,-2.06 7.63,-2.06 7.52,-2.05 7.42,-2.08 7.32,-2.11 7.23,-2.17 7.14,-2.24 7.08,-2.32 7.02,-2.41 6.98,-2.51 6.95,-2.61 6.95,-2.71 6.96,-2.82 6.99,-2.92 7.03,-3.02 7.09,-3.10 7.16,-3.19 7.25,-3.25 7.33,-3.31 7.44,-3.33 7.54,-3.36 7.65,-3.35 7.75,-3.34 7.85,-3.30 7.95,-3.26 8.03,-3.19 8.11,-3.12 8.16,-3.03 8.22,-2.94 8.24,-2.83 8.26,-2.73 8.24,-2.63 8.23,-2.52 8.19,-2.42 8.14,-2.33 8.07,-2.25 7.99,-2.18 7.99,-2.18 7.99,-2.18 5.59,-0.56 3.19,1.04 1.71,1.12 0.23,1.19 0.09,1.20 -0.05,1.22 -0.19,1.19 -0.34,1.17 -0.47,1.11 -0.61,1.05 -0.73,0.96 -0.84,0.87 -0.94,0.76 -1.03,0.64 -1.09,0.51 -1.16,0.38 -1.18,0.23 -1.21,0.09 -1.21,-0.05 -1.20,-0.20 -1.16,-0.34 -1.12,-0.48 -1.04,-0.61 -0.97,-0.73 -0.87,-0.84 -0.76,-0.94 -0.64,-1.02 -0.51,-1.10 -0.37,-1.15 -0.23,-1.19 -0.23,-1.19 L -0.23,-1.19 Z"></path></g><g transform="translate(530 267) rotate(0 7.5 -0.5)" stroke="none"><path fill="#1971c2" d="M 0,-1.07 Q 0,-1.07 1.43,-1.37 2.87,-1.67 4.34,-1.68 5.82,-1.70 7.31,-1.71 8.79,-1.71 9.99,-1.70 11.20,-1.69 12.67,-1.57 14.14,-1.45 14.25,-1.46 14.36,-1.47 14.46,-1.45 14.56,-1.42 14.65,-1.37 14.74,-1.31 14.81,-1.23 14.88,-1.15 14.92,-1.05 14.95,-0.95 14.96,-0.84 14.96,-0.74 14.93,-0.63 14.90,-0.53 14.84,-0.44 14.78,-0.36 14.70,-0.29 14.61,-0.23 14.51,-0.20 14.41,-0.17 14.30,-0.17 14.20,-0.17 14.10,-0.20 14.00,-0.24 13.91,-0.30 13.83,-0.37 13.77,-0.46 13.71,-0.55 13.68,-0.65 13.66,-0.75 13.66,-0.86 13.67,-0.96 13.71,-1.06 13.75,-1.16 13.82,-1.24 13.89,-1.32 13.98,-1.37 14.08,-1.43 14.18,-1.45 14.28,-1.47 14.39,-1.46 14.50,-1.44 14.59,-1.40 14.69,-1.35 14.76,-1.28 14.84,-1.21 14.89,-1.11 14.94,-1.02 14.95,-0.91 14.97,-0.81 14.95,-0.70 14.93,-0.60 14.88,-0.50 14.83,-0.41 14.75,-0.34 14.67,-0.27 14.58,-0.22 14.48,-0.18 14.48,-0.18 14.48,-0.18 12.85,0.75 11.22,1.69 10.01,1.70 8.79,1.71 7.31,1.71 5.82,1.70 4.34,1.68 2.87,1.67 1.43,1.37 0,1.07 -0.12,1.05 -0.25,1.04 -0.37,0.99 -0.49,0.95 -0.60,0.87 -0.71,0.80 -0.79,0.70 -0.88,0.60 -0.94,0.49 -1.00,0.38 -1.03,0.25 -1.06,0.12 -1.06,-0.00 -1.06,-0.12 -1.03,-0.25 -1.00,-0.38 -0.94,-0.49 -0.88,-0.60 -0.79,-0.70 -0.71,-0.80 -0.60,-0.87 -0.49,-0.95 -0.37,-0.99 -0.25,-1.04 -0.12,-1.05 0.00,-1.07 0.00,-1.07 L 0,-1.07 Z"></path></g><g transform="translate(554 282) rotate(0 2 6)" stroke="none"><path fill="#1971c2" d="M 1.42,-0.40 Q 1.42,-0.40 2.12,1.56 2.83,3.54 3.34,4.90 3.86,6.27 4.17,8.80 4.49,11.32 4.50,11.43 4.51,11.53 4.49,11.64 4.47,11.74 4.41,11.83 4.36,11.92 4.28,11.99 4.20,12.06 4.10,12.10 4.00,12.14 3.89,12.15 3.79,12.15 3.68,12.12 3.58,12.09 3.49,12.03 3.41,11.97 3.34,11.89 3.28,11.81 3.24,11.70 3.21,11.60 3.21,11.50 3.21,11.39 3.24,11.29 3.28,11.19 3.34,11.11 3.41,11.02 3.50,10.96 3.58,10.90 3.69,10.87 3.79,10.85 3.89,10.85 4.00,10.86 4.10,10.90 4.20,10.94 4.28,11.01 4.36,11.07 4.41,11.17 4.47,11.26 4.49,11.36 4.51,11.46 4.50,11.57 4.49,11.68 4.45,11.77 4.40,11.87 4.33,11.94 4.25,12.02 4.16,12.07 4.07,12.12 3.96,12.14 3.86,12.16 3.75,12.14 3.65,12.12 3.55,12.07 3.46,12.02 3.39,11.94 3.31,11.87 3.27,11.77 3.22,11.67 3.22,11.67 3.22,11.67 1.89,9.58 0.56,7.49 0.01,6.00 -0.53,4.50 -0.97,2.45 -1.42,0.40 -1.44,0.23 -1.47,0.05 -1.46,-0.12 -1.44,-0.30 -1.38,-0.46 -1.33,-0.63 -1.23,-0.78 -1.14,-0.93 -1.01,-1.06 -0.88,-1.18 -0.72,-1.27 -0.57,-1.36 -0.40,-1.41 -0.23,-1.45 -0.05,-1.46 0.12,-1.47 0.29,-1.43 0.47,-1.39 0.63,-1.32 0.79,-1.24 0.93,-1.13 1.06,-1.01 1.17,-0.87 1.28,-0.73 1.35,-0.56 1.42,-0.40 1.42,-0.40 L 1.42,-0.40 Z"></path></g><g transform="translate(551 273) rotate(0 1.5 0)" stroke="none"><path fill="#1971c2" d="M 0,-1.57 Q 0,-1.57 0.86,-1.11 1.72,-0.65 1.82,-0.63 1.93,-0.62 2.02,-0.57 2.12,-0.52 2.19,-0.44 2.26,-0.36 2.31,-0.27 2.35,-0.17 2.36,-0.07 2.38,0.03 2.35,0.13 2.33,0.24 2.28,0.33 2.22,0.42 2.14,0.49 2.06,0.56 1.96,0.60 1.86,0.64 1.76,0.64 1.65,0.65 1.55,0.62 1.44,0.59 1.36,0.53 1.27,0.47 1.20,0.39 1.14,0.30 1.11,0.20 1.07,0.10 1.07,-0.00 1.07,-0.10 1.11,-0.20 1.14,-0.30 1.20,-0.39 1.27,-0.47 1.36,-0.53 1.44,-0.59 1.55,-0.62 1.65,-0.65 1.76,-0.64 1.86,-0.64 1.96,-0.60 2.06,-0.56 2.14,-0.49 2.22,-0.42 2.28,-0.33 2.33,-0.24 2.35,-0.13 2.38,-0.03 2.36,0.07 2.35,0.17 2.31,0.27 2.26,0.36 2.19,0.44 2.12,0.52 2.02,0.57 1.93,0.62 1.82,0.63 1.72,0.65 1.72,0.65 1.72,0.65 0.86,1.11 0,1.57 -0.18,1.55 -0.37,1.53 -0.55,1.46 -0.73,1.39 -0.89,1.29 -1.04,1.18 -1.17,1.03 -1.29,0.89 -1.38,0.72 -1.47,0.55 -1.52,0.37 -1.56,0.19 -1.56,-0.00 -1.56,-0.19 -1.52,-0.37 -1.47,-0.56 -1.38,-0.72 -1.29,-0.89 -1.17,-1.03 -1.04,-1.18 -0.89,-1.29 -0.73,-1.39 -0.55,-1.46 -0.37,-1.53 -0.18,-1.55 0.00,-1.57 0.00,-1.57 L 0,-1.57 Z"></path></g><g transform="translate(172 290) rotate(0 9 16)" stroke="none"><path fill="#1e1e1e" d="M 1.14,0.11 Q 1.14,0.11 1.13,3.01 1.12,5.91 1.00,8.81 0.88,11.71 1.12,14.58 1.35,17.45 2.00,20.02 2.64,22.58 3.71,24.71 4.77,26.84 6.25,28.51 7.74,30.18 8.98,30.79 10.22,31.40 11.27,31.15 12.32,30.90 13.18,29.84 14.05,28.79 14.99,26.47 15.93,24.15 16.34,21.52 16.75,18.89 16.93,16.04 17.11,13.20 17.18,10.55 17.26,7.91 17.00,6.03 16.75,4.16 16.68,1.69 16.60,-0.77 16.60,-0.88 16.59,-0.98 16.62,-1.09 16.64,-1.19 16.70,-1.28 16.76,-1.37 16.85,-1.43 16.93,-1.50 17.03,-1.53 17.13,-1.57 17.24,-1.57 17.34,-1.57 17.44,-1.54 17.54,-1.50 17.63,-1.44 17.72,-1.38 17.78,-1.29 17.84,-1.20 17.87,-1.10 17.89,-1.00 17.89,-0.89 17.89,-0.78 17.85,-0.68 17.81,-0.59 17.74,-0.50 17.67,-0.42 17.58,-0.37 17.49,-0.31 17.39,-0.29 17.28,-0.26 17.18,-0.27 17.07,-0.28 16.98,-0.33 16.88,-0.37 16.80,-0.44 16.72,-0.52 16.67,-0.61 16.62,-0.70 16.60,-0.81 16.59,-0.91 16.60,-1.02 16.62,-1.12 16.67,-1.22 16.72,-1.31 16.79,-1.39 16.87,-1.46 16.97,-1.50 17.06,-1.55 17.17,-1.56 17.27,-1.57 17.38,-1.55 17.48,-1.53 17.57,-1.48 17.66,-1.42 17.73,-1.34 17.80,-1.26 17.84,-1.16 17.88,-1.07 17.88,-1.07 17.88,-1.07 18.93,1.34 19.98,3.75 20.23,5.87 20.48,8.00 20.39,10.71 20.29,13.42 20.08,16.41 19.86,19.40 19.34,22.38 18.82,25.37 17.57,28.14 16.33,30.91 14.74,32.36 13.16,33.81 11.16,34.05 9.16,34.28 7.29,33.32 5.41,32.37 3.62,30.36 1.82,28.35 0.59,25.89 -0.64,23.42 -1.34,20.58 -2.05,17.73 -2.29,14.65 -2.52,11.57 -2.40,8.57 -2.27,5.58 -1.71,2.73 -1.14,-0.11 -1.11,-0.25 -1.08,-0.38 -1.02,-0.51 -0.96,-0.63 -0.87,-0.74 -0.78,-0.84 -0.67,-0.92 -0.55,-1.01 -0.42,-1.06 -0.30,-1.11 -0.16,-1.13 -0.02,-1.15 0.11,-1.14 0.25,-1.12 0.38,-1.08 0.51,-1.03 0.63,-0.95 0.74,-0.88 0.84,-0.77 0.93,-0.67 1.00,-0.55 1.07,-0.43 1.10,-0.29 1.14,-0.16 1.14,-0.02 1.14,0.11 1.14,0.11 L 1.14,0.11 Z"></path></g><g transform="translate(205 302) rotate(0 7 1)" stroke="none"><path fill="#1e1e1e" d="M 0,-1.36 Q 0,-1.36 2.01,-1.50 4.02,-1.64 5.74,-1.64 7.46,-1.65 9.06,-1.64 10.66,-1.63 12.43,-0.17 14.20,1.27 14.26,1.36 14.33,1.45 14.36,1.55 14.39,1.65 14.39,1.76 14.38,1.86 14.35,1.96 14.31,2.06 14.24,2.14 14.18,2.23 14.09,2.28 14.00,2.34 13.89,2.37 13.79,2.39 13.68,2.38 13.58,2.37 13.48,2.33 13.38,2.29 13.30,2.22 13.23,2.15 13.17,2.06 13.12,1.96 13.10,1.86 13.08,1.76 13.10,1.65 13.11,1.54 13.16,1.45 13.20,1.35 13.28,1.28 13.35,1.20 13.45,1.16 13.54,1.11 13.65,1.10 13.76,1.08 13.86,1.10 13.96,1.12 14.06,1.17 14.15,1.23 14.22,1.30 14.29,1.38 14.33,1.48 14.37,1.58 14.38,1.69 14.39,1.79 14.37,1.89 14.34,2.00 14.28,2.09 14.23,2.18 14.14,2.24 14.06,2.31 13.96,2.35 13.86,2.38 13.76,2.39 13.65,2.39 13.55,2.36 13.45,2.33 13.36,2.26 13.27,2.20 13.27,2.20 13.27,2.20 11.95,1.91 10.62,1.63 9.04,1.64 7.46,1.65 5.74,1.64 4.02,1.64 2.01,1.50 0,1.36 -0.16,1.34 -0.32,1.32 -0.48,1.27 -0.63,1.21 -0.77,1.11 -0.90,1.02 -1.01,0.90 -1.12,0.77 -1.20,0.63 -1.27,0.48 -1.31,0.32 -1.35,0.16 -1.35,-0.00 -1.35,-0.16 -1.31,-0.32 -1.27,-0.48 -1.20,-0.63 -1.12,-0.77 -1.01,-0.90 -0.90,-1.02 -0.77,-1.11 -0.63,-1.21 -0.48,-1.27 -0.32,-1.32 -0.16,-1.34 0.00,-1.36 0.00,-1.36 L 0,-1.36 Z"></path></g><g transform="translate(207 310) rotate(0 7.5 0.5)" stroke="none"><path fill="#1e1e1e" d="M 0.18,-1.08 Q 0.18,-1.08 1.94,-1.04 3.71,-0.99 5.51,-0.89 7.31,-0.79 10.42,-0.64 13.52,-0.50 13.63,-0.49 13.73,-0.49 13.83,-0.45 13.93,-0.41 14.01,-0.34 14.09,-0.27 14.15,-0.18 14.20,-0.09 14.22,0.01 14.24,0.11 14.23,0.22 14.22,0.32 14.18,0.42 14.13,0.51 14.06,0.59 13.98,0.67 13.89,0.72 13.80,0.77 13.69,0.78 13.59,0.80 13.48,0.78 13.38,0.76 13.28,0.71 13.19,0.66 13.12,0.59 13.04,0.51 13.00,0.41 12.96,0.32 12.94,0.21 12.93,0.11 12.96,0.00 12.98,-0.09 13.04,-0.18 13.09,-0.27 13.17,-0.34 13.25,-0.41 13.35,-0.45 13.45,-0.49 13.56,-0.49 13.66,-0.50 13.76,-0.47 13.87,-0.44 13.95,-0.38 14.04,-0.32 14.11,-0.24 14.17,-0.15 14.20,-0.05 14.24,0.04 14.24,0.15 14.24,0.25 14.20,0.35 14.17,0.45 14.10,0.54 14.04,0.62 13.95,0.68 13.86,0.74 13.76,0.77 13.66,0.80 13.66,0.80 13.66,0.80 10.38,1.61 7.11,2.43 5.15,2.28 3.18,2.14 1.50,1.61 -0.18,1.08 -0.30,1.04 -0.43,1.01 -0.55,0.94 -0.66,0.87 -0.76,0.78 -0.85,0.69 -0.92,0.58 -0.99,0.46 -1.03,0.34 -1.08,0.21 -1.09,0.08 -1.10,-0.04 -1.07,-0.17 -1.05,-0.31 -1.00,-0.43 -0.95,-0.55 -0.87,-0.66 -0.79,-0.76 -0.68,-0.85 -0.58,-0.93 -0.46,-0.99 -0.34,-1.04 -0.21,-1.07 -0.08,-1.09 0.04,-1.09 0.18,-1.08 0.18,-1.08 L 0.18,-1.08 Z"></path></g><g transform="translate(239 294) rotate(0 8.5 15)" stroke="none"><path fill="#1e1e1e" d="M 1.18,-0.16 Q 1.18,-0.16 1.71,1.80 2.25,3.78 2.38,6.44 2.51,9.10 2.56,11.66 2.62,14.21 2.62,17.32 2.62,20.42 2.31,22.70 2.00,24.98 1.86,26.47 1.72,27.95 1.33,28.56 0.94,29.17 0.91,29.34 0.87,29.51 0.80,29.67 0.72,29.83 0.61,29.96 0.50,30.10 0.36,30.20 0.22,30.31 0.06,30.38 -0.09,30.45 -0.26,30.48 -0.43,30.50 -0.61,30.49 -0.78,30.48 -0.95,30.42 -1.12,30.37 -1.26,30.27 -1.41,30.18 -1.53,30.05 -1.66,29.93 -1.74,29.78 -1.83,29.62 -1.88,29.46 -1.93,29.29 -1.94,29.11 -1.94,28.94 -1.96,27.99 -1.97,27.03 -1.57,26.53 -1.16,26.02 -0.51,25.81 0.13,25.61 1.27,25.54 2.42,25.47 3.45,25.44 4.48,25.40 5.78,25.39 7.08,25.38 8.78,25.38 10.48,25.37 11.92,25.10 13.36,24.82 15.33,24.74 17.31,24.66 17.41,24.61 17.50,24.57 17.61,24.56 17.71,24.55 17.82,24.58 17.92,24.61 18.01,24.66 18.10,24.72 18.17,24.80 18.23,24.88 18.27,24.98 18.31,25.08 18.31,25.19 18.31,25.30 18.28,25.40 18.25,25.50 18.19,25.59 18.13,25.67 18.04,25.73 17.95,25.80 17.85,25.83 17.75,25.86 17.64,25.86 17.54,25.85 17.44,25.82 17.34,25.78 17.26,25.71 17.17,25.65 17.12,25.56 17.06,25.47 17.03,25.37 17.01,25.26 17.02,25.16 17.02,25.05 17.07,24.95 17.11,24.85 17.18,24.78 17.25,24.70 17.34,24.64 17.43,24.59 17.54,24.57 17.64,24.55 17.75,24.57 17.85,24.58 17.95,24.63 18.04,24.67 18.12,24.75 18.19,24.83 18.24,24.92 18.29,25.02 18.30,25.12 18.32,25.23 18.30,25.33 18.28,25.43 18.23,25.53 18.17,25.62 18.09,25.69 18.02,25.76 18.02,25.76 18.02,25.76 15.98,26.89 13.94,28.02 12.22,28.32 10.49,28.63 8.79,28.63 7.09,28.63 5.80,28.63 4.52,28.63 3.52,28.62 2.52,28.61 1.50,28.24 0.49,27.86 0.72,28.51 0.94,29.17 0.91,29.34 0.87,29.51 0.80,29.67 0.72,29.83 0.61,29.96 0.50,30.10 0.36,30.20 0.22,30.31 0.06,30.38 -0.09,30.45 -0.26,30.48 -0.43,30.50 -0.61,30.49 -0.78,30.48 -0.95,30.42 -1.12,30.37 -1.26,30.27 -1.41,30.18 -1.53,30.05 -1.66,29.93 -1.74,29.78 -1.83,29.63 -1.88,29.46 -1.93,29.29 -1.94,29.11 -1.94,28.94 -1.66,28.27 -1.37,27.60 -1.28,26.09 -1.18,24.57 -0.93,22.51 -0.68,20.44 -0.72,17.36 -0.77,14.28 -0.82,11.77 -0.87,9.26 -0.98,6.76 -1.10,4.26 -1.14,2.21 -1.18,0.16 -1.18,0.02 -1.18,-0.11 -1.15,-0.25 -1.12,-0.40 -1.06,-0.52 -0.99,-0.65 -0.90,-0.76 -0.81,-0.87 -0.69,-0.96 -0.57,-1.04 -0.44,-1.10 -0.31,-1.15 -0.16,-1.17 -0.02,-1.19 0.11,-1.18 0.26,-1.16 0.39,-1.11 0.53,-1.07 0.65,-0.99 0.77,-0.91 0.87,-0.80 0.96,-0.69 1.03,-0.57 1.10,-0.44 1.14,-0.30 1.18,-0.16 1.18,-0.16 L 1.18,-0.16 Z"></path></g><g transform="translate(240 308) rotate(0 7.5 -1.5)" stroke="none"><path fill="#1e1e1e" d="M 0,-1.11 Q 0,-1.11 1.72,-1.39 3.44,-1.66 5.04,-1.67 6.63,-1.67 8.01,-1.94 9.40,-2.21 11.58,-2.68 13.77,-3.15 13.87,-3.18 13.97,-3.21 14.08,-3.20 14.18,-3.20 14.28,-3.16 14.38,-3.12 14.46,-3.05 14.54,-2.98 14.60,-2.89 14.65,-2.80 14.67,-2.69 14.70,-2.59 14.69,-2.49 14.67,-2.38 14.63,-2.28 14.58,-2.19 14.51,-2.11 14.44,-2.03 14.34,-1.98 14.25,-1.93 14.14,-1.92 14.04,-1.90 13.94,-1.92 13.83,-1.94 13.74,-1.99 13.64,-2.04 13.57,-2.11 13.50,-2.19 13.45,-2.29 13.41,-2.38 13.40,-2.49 13.39,-2.59 13.41,-2.70 13.43,-2.80 13.49,-2.89 13.54,-2.98 13.62,-3.05 13.70,-3.12 13.80,-3.16 13.90,-3.20 14.01,-3.20 14.11,-3.21 14.22,-3.18 14.32,-3.15 14.41,-3.09 14.49,-3.03 14.56,-2.95 14.62,-2.86 14.66,-2.76 14.69,-2.66 14.69,-2.56 14.69,-2.45 14.66,-2.35 14.62,-2.25 14.56,-2.16 14.49,-2.08 14.40,-2.02 14.32,-1.96 14.32,-1.96 14.32,-1.96 12.18,-0.45 10.04,1.06 8.34,1.37 6.64,1.67 5.04,1.67 3.44,1.66 1.72,1.39 0,1.11 -0.13,1.10 -0.26,1.08 -0.39,1.03 -0.51,0.99 -0.63,0.91 -0.74,0.83 -0.83,0.73 -0.92,0.63 -0.98,0.51 -1.04,0.39 -1.07,0.26 -1.11,0.13 -1.11,-0.00 -1.11,-0.13 -1.07,-0.26 -1.04,-0.39 -0.98,-0.51 -0.92,-0.63 -0.83,-0.73 -0.74,-0.83 -0.63,-0.91 -0.51,-0.99 -0.39,-1.03 -0.26,-1.08 -0.13,-1.10 0.00,-1.11 0.00,-1.11 L 0,-1.11 Z"></path></g><g transform="translate(242 293) rotate(0 8.5 0.5)" stroke="none"><path fill="#1e1e1e" d="M 0,-1.38 Q 0,-1.38 1.43,-1.54 2.87,-1.70 4.63,-1.72 6.40,-1.74 8.16,-1.45 9.92,-1.15 11.38,-0.99 12.84,-0.83 14.54,-0.26 16.25,0.31 16.35,0.33 16.46,0.35 16.55,0.40 16.64,0.46 16.71,0.54 16.78,0.62 16.82,0.72 16.86,0.81 16.87,0.92 16.87,1.03 16.85,1.13 16.82,1.23 16.76,1.32 16.70,1.41 16.62,1.47 16.54,1.54 16.43,1.57 16.33,1.61 16.23,1.61 16.12,1.61 16.02,1.58 15.92,1.55 15.83,1.48 15.75,1.42 15.69,1.33 15.63,1.25 15.60,1.14 15.57,1.04 15.57,0.93 15.58,0.83 15.62,0.73 15.65,0.63 15.72,0.55 15.79,0.47 15.88,0.41 15.97,0.36 16.07,0.33 16.18,0.31 16.28,0.32 16.39,0.33 16.49,0.37 16.58,0.41 16.66,0.49 16.74,0.56 16.79,0.65 16.84,0.75 16.86,0.85 16.88,0.95 16.86,1.06 16.85,1.16 16.80,1.26 16.75,1.35 16.67,1.43 16.60,1.50 16.50,1.55 16.40,1.59 16.30,1.61 16.19,1.62 16.19,1.62 16.19,1.62 14.39,2.04 12.58,2.47 10.94,2.38 9.31,2.30 7.85,2.02 6.39,1.74 4.63,1.72 2.87,1.70 1.43,1.54 0,1.38 -0.16,1.36 -0.33,1.34 -0.48,1.28 -0.64,1.22 -0.77,1.12 -0.91,1.03 -1.02,0.90 -1.13,0.78 -1.21,0.63 -1.29,0.48 -1.33,0.32 -1.37,0.16 -1.37,-0.00 -1.37,-0.16 -1.33,-0.32 -1.29,-0.48 -1.21,-0.63 -1.13,-0.78 -1.02,-0.90 -0.91,-1.03 -0.77,-1.12 -0.64,-1.22 -0.48,-1.28 -0.33,-1.34 -0.16,-1.36 0.00,-1.38 0.00,-1.38 L 0,-1.38 Z"></path></g><g transform="translate(268 310) rotate(0 2 7.5)" stroke="none"><path fill="#1e1e1e" d="M 1.39,-0.27 Q 1.39,-0.27 1.82,1.12 2.25,2.53 2.68,4.26 3.10,5.99 3.56,7.56 4.01,9.13 4.26,11.72 4.50,14.32 4.51,14.42 4.52,14.53 4.49,14.63 4.47,14.74 4.41,14.83 4.36,14.92 4.27,14.98 4.19,15.05 4.09,15.09 3.99,15.12 3.88,15.13 3.78,15.13 3.68,15.10 3.57,15.07 3.49,15.00 3.40,14.94 3.34,14.86 3.28,14.77 3.25,14.67 3.22,14.57 3.22,14.46 3.22,14.35 3.26,14.26 3.29,14.16 3.36,14.07 3.43,13.99 3.52,13.93 3.61,13.88 3.71,13.85 3.81,13.82 3.92,13.83 4.02,13.84 4.12,13.88 4.22,13.92 4.30,14.00 4.38,14.07 4.43,14.16 4.48,14.25 4.50,14.36 4.52,14.46 4.51,14.56 4.49,14.67 4.45,14.77 4.40,14.86 4.32,14.94 4.25,15.01 4.15,15.06 4.06,15.11 3.95,15.12 3.85,15.13 3.74,15.11 3.64,15.09 3.55,15.04 3.45,14.99 3.38,14.91 3.31,14.83 3.27,14.73 3.23,14.64 3.23,14.64 3.23,14.64 1.92,12.37 0.61,10.10 0.14,8.45 -0.31,6.79 -0.71,5.00 -1.10,3.21 -1.25,1.74 -1.39,0.27 -1.40,0.10 -1.42,-0.06 -1.39,-0.23 -1.36,-0.40 -1.29,-0.55 -1.22,-0.71 -1.12,-0.85 -1.02,-0.98 -0.88,-1.09 -0.75,-1.20 -0.60,-1.27 -0.44,-1.35 -0.27,-1.38 -0.10,-1.41 0.06,-1.41 0.23,-1.40 0.39,-1.35 0.56,-1.30 0.71,-1.22 0.85,-1.13 0.98,-1.01 1.10,-0.89 1.19,-0.75 1.28,-0.60 1.34,-0.44 1.39,-0.27 1.39,-0.27 L 1.39,-0.27 Z"></path></g><g transform="translate(267 302) rotate(0 0.00005000000000165983 0.00004999999999988347)" stroke="none"><path fill="#1e1e1e" d="M 1.06,-1.06 Q 1.06,-1.06 1.20,-0.86 1.34,-0.66 1.41,-0.43 1.48,-0.20 1.48,0.04 1.47,0.28 1.39,0.51 1.30,0.73 1.15,0.92 1.00,1.11 0.79,1.24 0.59,1.38 0.35,1.43 0.12,1.49 -0.12,1.47 -0.36,1.45 -0.58,1.36 -0.80,1.26 -0.99,1.10 -1.17,0.94 -1.29,0.72 -1.41,0.51 -1.45,0.27 -1.50,0.04 -1.46,-0.20 -1.43,-0.44 -1.32,-0.65 -1.22,-0.87 -1.04,-1.04 -0.87,-1.22 -0.65,-1.32 -0.44,-1.43 -0.19,-1.46 0.04,-1.50 0.27,-1.45 0.51,-1.41 0.73,-1.29 0.94,-1.17 1.10,-0.98 1.26,-0.80 1.36,-0.58 1.45,-0.36 1.47,-0.11 1.49,0.12 1.43,0.35 1.38,0.59 1.24,0.79 1.11,1.00 0.92,1.15 0.73,1.30 0.51,1.39 0.28,1.47 0.03,1.48 -0.20,1.48 -0.43,1.41 -0.66,1.34 -0.86,1.20 -1.06,1.06 -1.06,1.06 -1.06,1.06 -1.17,0.91 -1.28,0.77 -1.36,0.61 -1.43,0.44 -1.46,0.26 -1.49,0.09 -1.48,-0.09 -1.47,-0.27 -1.42,-0.44 -1.37,-0.61 -1.27,-0.77 -1.18,-0.92 -1.05,-1.05 -0.92,-1.18 -0.77,-1.27 -0.61,-1.37 -0.44,-1.42 -0.27,-1.47 -0.09,-1.48 0.09,-1.49 0.26,-1.46 0.44,-1.43 0.61,-1.36 0.77,-1.28 0.91,-1.17 1.06,-1.06 1.06,-1.06 L 1.06,-1.06 Z"></path></g></svg>