<svg version="1.1" xmlns="http://www.w3.org/2000/svg" viewBox="0 0 749.7512907440993 478.3761497966486" width="749.7512907440993" height="478.3761497966486" class="excalidraw-svg">
  <!-- svg-source:excalidraw -->
  
  <defs>
    <style class="style-fonts">
      
    </style>
    
  </defs>
  <g transform="translate(10 23.693084716796875) rotate(0 2.738615036010742 221.82763671875)" stroke="none"><path fill="#1e1e1e" d="M 0.83,0 Q 0.83,0 1.09,2.23 1.34,4.47 1.35,7.21 1.36,9.95 1.52,15.12 1.69,20.30 1.76,26.55 1.83,32.79 1.86,41.71 1.90,50.64 2.07,59.78 2.25,68.93 2.32,78.20 2.40,87.47 2.59,99.01 2.79,110.55 2.87,120.84 2.95,131.12 2.99,141.31 3.02,151.50 3.04,161.20 3.06,170.90 3.22,183.97 3.39,197.03 3.46,208.41 3.53,219.79 3.72,230.88 3.91,241.97 4.14,253.85 4.38,265.72 4.64,277.93 4.90,290.14 5.15,302.49 5.41,314.84 5.66,330.83 5.90,346.83 5.99,361.24 6.09,375.65 6.24,389.82 6.39,403.99 6.27,415.40 6.16,426.80 6.11,431.64 6.07,436.49 6.06,436.59 6.04,436.70 5.99,436.79 5.94,436.88 5.87,436.96 5.79,437.03 5.69,437.08 5.60,437.12 5.49,437.13 5.39,437.15 5.28,437.12 5.18,437.10 5.09,437.05 5.00,436.99 4.93,436.91 4.86,436.83 4.82,436.74 4.78,436.64 4.77,436.53 4.76,436.42 4.79,436.32 4.82,436.22 4.88,436.13 4.94,436.04 5.02,435.98 5.11,435.91 5.21,435.88 5.31,435.84 5.41,435.84 5.52,435.84 5.62,435.87 5.72,435.91 5.81,435.97 5.89,436.04 5.95,436.12 6.01,436.21 6.04,436.31 6.07,436.41 6.06,436.52 6.06,436.63 6.02,436.73 5.98,436.82 5.91,436.91 5.85,436.99 5.76,437.04 5.66,437.10 5.56,437.12 5.46,437.15 5.35,437.14 5.25,437.12 5.15,437.08 5.05,437.04 4.97,436.96 4.90,436.89 4.85,436.80 4.80,436.70 4.78,436.60 4.76,436.50 4.76,436.50 4.76,436.50 4.65,431.65 4.53,426.81 4.23,415.42 3.94,404.03 3.68,389.85 3.42,375.67 3.29,361.27 3.15,346.87 2.85,330.89 2.55,314.90 2.27,302.55 2.00,290.20 1.74,277.99 1.48,265.78 1.24,253.90 1.01,242.02 0.82,230.91 0.63,219.81 0.57,208.44 0.50,197.07 0.34,183.99 0.18,170.90 0.17,161.21 0.15,151.51 0.12,141.32 0.09,131.14 0.01,120.87 -0.06,110.60 -0.24,99.05 -0.42,87.50 -0.49,78.24 -0.56,68.98 -0.72,59.81 -0.89,50.64 -0.91,41.73 -0.93,32.82 -1.00,26.60 -1.06,20.38 -1.21,15.17 -1.36,9.95 -1.35,7.21 -1.34,4.47 -1.09,2.23 -0.83,0 -0.82,-0.09 -0.80,-0.19 -0.77,-0.29 -0.73,-0.38 -0.68,-0.46 -0.62,-0.55 -0.54,-0.61 -0.47,-0.68 -0.38,-0.73 -0.29,-0.77 -0.19,-0.80 -0.10,-0.82 0.00,-0.82 0.10,-0.82 0.19,-0.80 0.29,-0.77 0.38,-0.73 0.47,-0.68 0.54,-0.61 0.62,-0.55 0.68,-0.46 0.73,-0.38 0.77,-0.29 0.80,-0.19 0.82,-0.09 0.83,0.00 0.83,0.00 L 0.83,0 Z"></path></g><g transform="translate(12.73861312866211 16.390106201171875) rotate(0 355.1067810058594 -3.1950531005859375)" stroke="none"><path fill="#1e1e1e" d="M -0.21,-1.09 Q -0.21,-1.09 1.06,-1.49 2.35,-1.90 4.84,-2.08 7.34,-2.25 9.05,-2.55 10.77,-2.86 16.10,-3.01 21.44,-3.15 27.84,-3.48 34.24,-3.80 41.46,-3.94 48.67,-4.08 60.14,-4.15 71.60,-4.22 83.30,-4.25 94.99,-4.28 107.31,-4.30 119.63,-4.31 132.74,-4.31 145.85,-4.32 160.08,-4.32 174.31,-4.33 189.03,-4.07 203.76,-3.80 223.12,-3.70 242.49,-3.59 259.64,-3.54 276.80,-3.50 293.00,-3.75 309.20,-4.00 329.73,-4.37 350.27,-4.74 368.18,-5.16 386.09,-5.58 403.15,-6.02 420.21,-6.46 436.92,-6.65 453.63,-6.84 470.70,-7.19 487.76,-7.53 505.00,-7.68 522.24,-7.83 544.01,-7.63 565.78,-7.43 584.22,-7.08 602.66,-6.73 618.90,-6.31 635.13,-5.89 649.66,-5.15 664.19,-4.41 677.42,-3.53 690.66,-2.65 696.28,-2.28 701.91,-1.92 702.01,-1.89 702.12,-1.87 702.21,-1.82 702.30,-1.76 702.37,-1.68 702.44,-1.60 702.48,-1.51 702.52,-1.41 702.53,-1.30 702.54,-1.20 702.51,-1.09 702.48,-0.99 702.42,-0.90 702.36,-0.81 702.28,-0.75 702.20,-0.68 702.10,-0.65 702.00,-0.61 701.89,-0.61 701.78,-0.61 701.68,-0.64 701.58,-0.68 701.50,-0.74 701.41,-0.80 701.35,-0.89 701.29,-0.98 701.26,-1.08 701.23,-1.18 701.23,-1.29 701.24,-1.39 701.28,-1.49 701.32,-1.59 701.38,-1.67 701.45,-1.75 701.54,-1.81 701.63,-1.87 701.74,-1.89 701.84,-1.91 701.94,-1.90 702.05,-1.89 702.15,-1.85 702.24,-1.81 702.32,-1.74 702.40,-1.66 702.45,-1.57 702.50,-1.48 702.52,-1.37 702.54,-1.27 702.52,-1.16 702.51,-1.06 702.46,-0.96 702.41,-0.87 702.33,-0.79 702.26,-0.72 702.16,-0.67 702.07,-0.63 701.96,-0.62 701.85,-0.60 701.85,-0.60 701.85,-0.60 696.22,-0.71 690.58,-0.82 677.31,-1.06 664.04,-1.30 649.54,-1.96 635.05,-2.61 618.82,-3.01 602.60,-3.42 584.17,-3.76 565.75,-4.11 544.01,-4.31 522.26,-4.51 505.05,-4.37 487.83,-4.23 470.75,-3.89 453.67,-3.55 436.98,-3.37 420.30,-3.18 403.23,-2.74 386.17,-2.30 368.25,-1.89 350.33,-1.47 329.79,-1.11 309.25,-0.75 293.02,-0.52 276.79,-0.28 259.63,-0.33 242.47,-0.38 223.08,-0.50 203.70,-0.61 189.01,-0.87 174.31,-1.13 160.08,-1.13 145.85,-1.13 132.74,-1.13 119.63,-1.13 107.31,-1.12 95.00,-1.11 83.31,-1.10 71.62,-1.08 60.17,-1.03 48.73,-0.98 41.56,-0.85 34.40,-0.72 27.96,-0.41 21.52,-0.10 16.39,0.01 11.27,0.12 9.38,0.44 7.48,0.75 5.19,0.80 2.89,0.85 1.55,0.97 0.21,1.09 0.08,1.10 -0.04,1.11 -0.18,1.08 -0.31,1.06 -0.43,1.01 -0.55,0.96 -0.66,0.87 -0.77,0.79 -0.85,0.69 -0.94,0.59 -0.99,0.46 -1.05,0.34 -1.08,0.21 -1.10,0.08 -1.10,-0.04 -1.09,-0.18 -1.05,-0.31 -1.02,-0.44 -0.95,-0.55 -0.88,-0.67 -0.79,-0.76 -0.69,-0.86 -0.58,-0.93 -0.47,-1.00 -0.34,-1.04 -0.21,-1.09 -0.21,-1.09 L -0.21,-1.09 Z"></path></g><g transform="translate(727.5164928436279 21.867279052734375) rotate(0 2.738615036010742 221.82763671875)" stroke="none"><path fill="#1e1e1e" d="M 0.83,0 Q 0.83,0 1.09,2.23 1.34,4.47 1.35,7.21 1.36,9.95 1.52,15.12 1.69,20.30 1.76,26.55 1.83,32.79 1.86,41.71 1.90,50.64 2.07,59.78 2.25,68.93 2.32,78.20 2.40,87.47 2.59,99.01 2.79,110.55 2.87,120.84 2.95,131.12 2.99,141.31 3.02,151.50 3.04,161.20 3.06,170.90 3.22,183.97 3.39,197.03 3.46,208.41 3.53,219.79 3.72,230.88 3.91,241.97 4.14,253.85 4.38,265.72 4.64,277.93 4.90,290.14 5.15,302.49 5.41,314.84 5.66,330.83 5.90,346.83 5.99,361.24 6.09,375.65 6.24,389.82 6.39,403.99 6.27,415.40 6.16,426.80 6.11,431.64 6.07,436.49 6.06,436.59 6.04,436.70 5.99,436.79 5.94,436.88 5.87,436.96 5.79,437.03 5.69,437.08 5.60,437.12 5.49,437.13 5.39,437.15 5.28,437.12 5.18,437.10 5.09,437.05 5.00,436.99 4.93,436.91 4.86,436.83 4.82,436.74 4.78,436.64 4.77,436.53 4.76,436.42 4.79,436.32 4.82,436.22 4.88,436.13 4.94,436.04 5.02,435.98 5.11,435.91 5.21,435.88 5.31,435.84 5.41,435.84 5.52,435.84 5.62,435.87 5.72,435.91 5.81,435.97 5.89,436.04 5.95,436.12 6.01,436.21 6.04,436.31 6.07,436.41 6.06,436.52 6.06,436.63 6.02,436.73 5.98,436.82 5.91,436.91 5.85,436.99 5.76,437.04 5.66,437.10 5.56,437.12 5.46,437.15 5.35,437.14 5.25,437.12 5.15,437.08 5.05,437.04 4.97,436.96 4.90,436.89 4.85,436.80 4.80,436.70 4.78,436.60 4.76,436.50 4.76,436.50 4.76,436.50 4.65,431.65 4.53,426.81 4.23,415.42 3.94,404.03 3.68,389.85 3.42,375.67 3.29,361.27 3.15,346.87 2.85,330.89 2.55,314.90 2.27,302.55 2.00,290.20 1.74,277.99 1.48,265.78 1.24,253.90 1.01,242.02 0.82,230.91 0.63,219.81 0.57,208.44 0.50,197.07 0.34,183.99 0.18,170.90 0.17,161.21 0.15,151.51 0.12,141.32 0.09,131.14 0.01,120.87 -0.06,110.60 -0.24,99.05 -0.42,87.50 -0.49,78.24 -0.56,68.98 -0.72,59.81 -0.89,50.64 -0.91,41.73 -0.93,32.82 -1.00,26.60 -1.06,20.38 -1.21,15.17 -1.36,9.95 -1.35,7.21 -1.34,4.47 -1.09,2.23 -0.83,0 -0.82,-0.09 -0.80,-0.19 -0.77,-0.29 -0.73,-0.38 -0.68,-0.46 -0.62,-0.55 -0.54,-0.61 -0.47,-0.68 -0.38,-0.73 -0.29,-0.77 -0.19,-0.80 -0.10,-0.82 0.00,-0.82 0.10,-0.82 0.19,-0.80 0.29,-0.77 0.38,-0.73 0.47,-0.68 0.54,-0.61 0.62,-0.55 0.68,-0.46 0.73,-0.38 0.77,-0.29 0.80,-0.19 0.82,-0.09 0.83,0.00 0.83,0.00 L 0.83,0 Z"></path></g><g transform="translate(25.518779754638672 466.89186096191406) rotate(0 355.1067810058594 -3.1950531005859375)" stroke="none"><path fill="#1e1e1e" d="M -0.21,-1.09 Q -0.21,-1.09 1.06,-1.49 2.35,-1.90 4.84,-2.08 7.34,-2.25 9.05,-2.55 10.77,-2.86 16.10,-3.01 21.44,-3.15 27.84,-3.48 34.24,-3.80 41.46,-3.94 48.67,-4.08 60.14,-4.15 71.60,-4.22 83.30,-4.25 94.99,-4.28 107.31,-4.30 119.63,-4.31 132.74,-4.31 145.85,-4.32 160.08,-4.32 174.31,-4.33 189.03,-4.07 203.76,-3.80 223.12,-3.70 242.49,-3.59 259.64,-3.54 276.80,-3.50 293.00,-3.75 309.20,-4.00 329.73,-4.37 350.27,-4.74 368.18,-5.16 386.09,-5.58 403.15,-6.02 420.21,-6.46 436.92,-6.65 453.63,-6.84 470.70,-7.19 487.76,-7.53 505.00,-7.68 522.24,-7.83 544.01,-7.63 565.78,-7.43 584.22,-7.08 602.66,-6.73 618.90,-6.31 635.13,-5.89 649.66,-5.15 664.19,-4.41 677.42,-3.53 690.66,-2.65 696.28,-2.28 701.91,-1.92 702.01,-1.89 702.12,-1.87 702.21,-1.82 702.30,-1.76 702.37,-1.68 702.44,-1.60 702.48,-1.51 702.52,-1.41 702.53,-1.30 702.54,-1.20 702.51,-1.09 702.48,-0.99 702.42,-0.90 702.36,-0.81 702.28,-0.75 702.20,-0.68 702.10,-0.65 702.00,-0.61 701.89,-0.61 701.78,-0.61 701.68,-0.64 701.58,-0.68 701.50,-0.74 701.41,-0.80 701.35,-0.89 701.29,-0.98 701.26,-1.08 701.23,-1.18 701.23,-1.29 701.24,-1.39 701.28,-1.49 701.32,-1.59 701.38,-1.67 701.45,-1.75 701.54,-1.81 701.63,-1.87 701.74,-1.89 701.84,-1.91 701.94,-1.90 702.05,-1.89 702.15,-1.85 702.24,-1.81 702.32,-1.74 702.40,-1.66 702.45,-1.57 702.50,-1.48 702.52,-1.37 702.54,-1.27 702.52,-1.16 702.51,-1.06 702.46,-0.96 702.41,-0.87 702.33,-0.79 702.26,-0.72 702.16,-0.67 702.07,-0.63 701.96,-0.62 701.85,-0.60 701.85,-0.60 701.85,-0.60 696.22,-0.71 690.58,-0.82 677.31,-1.06 664.04,-1.30 649.54,-1.96 635.05,-2.61 618.82,-3.01 602.60,-3.42 584.17,-3.76 565.75,-4.11 544.01,-4.31 522.26,-4.51 505.05,-4.37 487.83,-4.23 470.75,-3.89 453.67,-3.55 436.98,-3.37 420.30,-3.18 403.23,-2.74 386.17,-2.30 368.25,-1.89 350.33,-1.47 329.79,-1.11 309.25,-0.75 293.02,-0.52 276.79,-0.28 259.63,-0.33 242.47,-0.38 223.08,-0.50 203.70,-0.61 189.01,-0.87 174.31,-1.13 160.08,-1.13 145.85,-1.13 132.74,-1.13 119.63,-1.13 107.31,-1.12 95.00,-1.11 83.31,-1.10 71.62,-1.08 60.17,-1.03 48.73,-0.98 41.56,-0.85 34.40,-0.72 27.96,-0.41 21.52,-0.10 16.39,0.01 11.27,0.12 9.38,0.44 7.48,0.75 5.19,0.80 2.89,0.85 1.55,0.97 0.21,1.09 0.08,1.10 -0.04,1.11 -0.18,1.08 -0.31,1.06 -0.43,1.01 -0.55,0.96 -0.66,0.87 -0.77,0.79 -0.85,0.69 -0.94,0.59 -0.99,0.46 -1.05,0.34 -1.08,0.21 -1.10,0.08 -1.10,-0.04 -1.09,-0.18 -1.05,-0.31 -1.02,-0.44 -0.95,-0.55 -0.88,-0.67 -0.79,-0.76 -0.69,-0.86 -0.58,-0.93 -0.47,-1.00 -0.34,-1.04 -0.21,-1.09 -0.21,-1.09 L -0.21,-1.09 Z"></path></g><g transform="translate(101.51529015844727 108.13362054296874) rotate(0 0.4564361572265625 131.90985107421875)" stroke="none"><path fill="#1e1e1e" d="M 1.04,0 Q 1.04,0 1.17,2.62 1.31,5.24 1.34,7.67 1.37,10.10 1.66,12.63 1.94,15.17 2.07,18.95 2.20,22.73 2.26,28.53 2.31,34.34 2.34,41.52 2.36,48.71 2.37,56.22 2.38,63.74 2.39,74.02 2.40,84.30 2.39,93.66 2.39,103.01 2.38,112.24 2.37,121.46 2.35,130.37 2.34,139.28 2.33,150.67 2.32,162.07 2.05,172.18 1.79,182.29 1.67,191.56 1.56,200.82 1.52,211.58 1.47,222.35 1.43,230.59 1.39,238.84 1.43,246.00 1.47,253.17 1.44,256.22 1.40,259.28 1.39,259.39 1.38,259.49 1.33,259.59 1.28,259.68 1.21,259.76 1.14,259.83 1.04,259.88 0.95,259.93 0.84,259.94 0.74,259.96 0.63,259.94 0.53,259.92 0.43,259.87 0.34,259.82 0.27,259.74 0.20,259.66 0.16,259.56 0.11,259.47 0.10,259.36 0.09,259.26 0.12,259.15 0.14,259.05 0.20,258.96 0.26,258.87 0.34,258.80 0.42,258.73 0.52,258.70 0.62,258.66 0.73,258.66 0.83,258.65 0.93,258.68 1.04,258.71 1.12,258.77 1.21,258.84 1.27,258.92 1.33,259.01 1.37,259.11 1.40,259.21 1.40,259.32 1.39,259.42 1.36,259.52 1.32,259.62 1.26,259.71 1.19,259.79 1.10,259.85 1.01,259.90 0.91,259.93 0.81,259.96 0.70,259.95 0.59,259.94 0.50,259.90 0.40,259.86 0.32,259.79 0.24,259.72 0.19,259.63 0.13,259.53 0.11,259.43 0.09,259.33 0.09,259.33 0.09,259.33 -0.15,256.28 -0.40,253.23 -0.86,246.03 -1.33,238.84 -1.33,230.58 -1.33,222.33 -1.28,211.56 -1.23,200.79 -1.12,191.50 -1.01,182.22 -0.75,172.14 -0.49,162.07 -0.50,150.67 -0.51,139.28 -0.53,130.37 -0.54,121.46 -0.56,112.24 -0.57,103.01 -0.58,93.66 -0.58,84.30 -0.58,74.02 -0.58,63.74 -0.59,56.23 -0.60,48.72 -0.61,41.54 -0.63,34.36 -0.66,28.59 -0.70,22.82 -0.80,19.14 -0.89,15.46 -1.13,12.78 -1.37,10.10 -1.34,7.67 -1.31,5.24 -1.17,2.62 -1.04,0 -1.02,-0.12 -1.01,-0.24 -0.96,-0.36 -0.92,-0.48 -0.85,-0.58 -0.78,-0.69 -0.68,-0.77 -0.59,-0.85 -0.48,-0.91 -0.36,-0.97 -0.24,-1.00 -0.12,-1.03 0.00,-1.03 0.12,-1.03 0.24,-1.00 0.36,-0.97 0.48,-0.91 0.59,-0.85 0.68,-0.77 0.78,-0.69 0.85,-0.58 0.92,-0.48 0.96,-0.36 1.01,-0.24 1.02,-0.12 1.04,0.00 1.04,0.00 L 1.04,0 Z"></path></g><g transform="translate(110.64399041479493 98.09202508398437) rotate(0 102.24154663085938 -0.912872314453125)" stroke="none"><path fill="#1e1e1e" d="M -0.12,-1.08 Q -0.12,-1.08 2.22,-1.46 4.57,-1.83 8.25,-1.96 11.93,-2.09 19.24,-2.42 26.55,-2.76 34.40,-2.89 42.25,-3.03 51.36,-3.09 60.47,-3.15 71.17,-3.17 81.86,-3.20 94.28,-3.21 106.70,-3.22 120.39,-2.96 134.08,-2.70 154.32,-2.51 174.55,-2.32 183.16,-1.98 191.76,-1.63 191.87,-1.62 191.97,-1.60 192.06,-1.55 192.16,-1.50 192.23,-1.42 192.30,-1.34 192.35,-1.25 192.39,-1.15 192.40,-1.04 192.41,-0.94 192.39,-0.83 192.37,-0.73 192.31,-0.64 192.26,-0.55 192.17,-0.48 192.09,-0.41 191.99,-0.37 191.90,-0.33 191.79,-0.33 191.68,-0.32 191.58,-0.35 191.48,-0.38 191.39,-0.44 191.30,-0.50 191.24,-0.59 191.18,-0.67 191.14,-0.77 191.11,-0.87 191.11,-0.98 191.11,-1.09 191.14,-1.19 191.18,-1.29 191.24,-1.37 191.31,-1.46 191.40,-1.52 191.49,-1.57 191.59,-1.60 191.69,-1.63 191.80,-1.62 191.90,-1.62 192.00,-1.58 192.10,-1.54 192.18,-1.47 192.26,-1.40 192.31,-1.31 192.37,-1.22 192.39,-1.11 192.41,-1.01 192.40,-0.90 192.39,-0.80 192.34,-0.70 192.30,-0.61 192.23,-0.53 192.15,-0.45 192.06,-0.40 191.96,-0.35 191.86,-0.34 191.75,-0.32 191.75,-0.32 191.75,-0.32 183.15,-0.07 174.54,0.17 154.28,0.14 134.03,0.11 120.36,-0.14 106.70,-0.40 94.29,-0.39 81.87,-0.38 71.18,-0.35 60.49,-0.33 51.39,-0.28 42.30,-0.22 34.48,-0.10 26.67,0.02 19.34,0.31 12.02,0.59 8.44,0.69 4.86,0.78 2.49,0.93 0.12,1.08 -0.01,1.08 -0.14,1.08 -0.27,1.05 -0.39,1.02 -0.51,0.95 -0.63,0.89 -0.72,0.80 -0.82,0.71 -0.90,0.60 -0.97,0.49 -1.02,0.37 -1.06,0.25 -1.08,0.12 -1.09,-0.01 -1.07,-0.14 -1.06,-0.27 -1.01,-0.39 -0.96,-0.51 -0.88,-0.62 -0.81,-0.73 -0.71,-0.82 -0.61,-0.90 -0.49,-0.96 -0.37,-1.02 -0.24,-1.05 -0.12,-1.08 -0.12,-1.08 L -0.12,-1.08 Z"></path></g><g transform="translate(110.64399041479493 383.8206320839844) rotate(0 102.24154663085938 -0.912872314453125)" stroke="none"><path fill="#1e1e1e" d="M -0.12,-1.08 Q -0.12,-1.08 2.22,-1.46 4.57,-1.83 8.25,-1.96 11.93,-2.09 19.24,-2.42 26.55,-2.76 34.40,-2.89 42.25,-3.03 51.36,-3.09 60.47,-3.15 71.17,-3.17 81.86,-3.20 94.28,-3.21 106.70,-3.22 120.39,-2.96 134.08,-2.70 154.32,-2.51 174.55,-2.32 183.16,-1.98 191.76,-1.63 191.87,-1.62 191.97,-1.60 192.06,-1.55 192.16,-1.50 192.23,-1.42 192.30,-1.34 192.35,-1.25 192.39,-1.15 192.40,-1.04 192.41,-0.94 192.39,-0.83 192.37,-0.73 192.31,-0.64 192.26,-0.55 192.17,-0.48 192.09,-0.41 191.99,-0.37 191.90,-0.33 191.79,-0.33 191.68,-0.32 191.58,-0.35 191.48,-0.38 191.39,-0.44 191.30,-0.50 191.24,-0.59 191.18,-0.67 191.14,-0.77 191.11,-0.87 191.11,-0.98 191.11,-1.09 191.14,-1.19 191.18,-1.29 191.24,-1.37 191.31,-1.46 191.40,-1.52 191.49,-1.57 191.59,-1.60 191.69,-1.63 191.80,-1.62 191.90,-1.62 192.00,-1.58 192.10,-1.54 192.18,-1.47 192.26,-1.40 192.31,-1.31 192.37,-1.22 192.39,-1.11 192.41,-1.01 192.40,-0.90 192.39,-0.80 192.34,-0.70 192.30,-0.61 192.23,-0.53 192.15,-0.45 192.06,-0.40 191.96,-0.35 191.86,-0.34 191.75,-0.32 191.75,-0.32 191.75,-0.32 183.15,-0.07 174.54,0.17 154.28,0.14 134.03,0.11 120.36,-0.14 106.70,-0.40 94.29,-0.39 81.87,-0.38 71.18,-0.35 60.49,-0.33 51.39,-0.28 42.30,-0.22 34.48,-0.10 26.67,0.02 19.34,0.31 12.02,0.59 8.44,0.69 4.86,0.78 2.49,0.93 0.12,1.08 -0.01,1.08 -0.14,1.08 -0.27,1.05 -0.39,1.02 -0.51,0.95 -0.63,0.89 -0.72,0.80 -0.82,0.71 -0.90,0.60 -0.97,0.49 -1.02,0.37 -1.06,0.25 -1.08,0.12 -1.09,-0.01 -1.07,-0.14 -1.06,-0.27 -1.01,-0.39 -0.96,-0.51 -0.88,-0.62 -0.81,-0.73 -0.71,-0.82 -0.61,-0.90 -0.49,-0.96 -0.37,-1.02 -0.24,-1.05 -0.12,-1.08 -0.12,-1.08 L -0.12,-1.08 Z"></path></g><g transform="translate(316.9528206760254 109.95936517187499) rotate(0 0.4564361572265625 131.90985107421875)" stroke="none"><path fill="#1e1e1e" d="M 1.04,0 Q 1.04,0 1.17,2.62 1.31,5.24 1.34,7.67 1.37,10.10 1.66,12.63 1.94,15.17 2.07,18.95 2.20,22.73 2.26,28.53 2.31,34.34 2.34,41.52 2.36,48.71 2.37,56.22 2.38,63.74 2.39,74.02 2.40,84.30 2.39,93.66 2.39,103.01 2.38,112.24 2.37,121.46 2.35,130.37 2.34,139.28 2.33,150.67 2.32,162.07 2.05,172.18 1.79,182.29 1.67,191.56 1.56,200.82 1.52,211.58 1.47,222.35 1.43,230.59 1.39,238.84 1.43,246.00 1.47,253.17 1.44,256.22 1.40,259.28 1.39,259.39 1.38,259.49 1.33,259.59 1.28,259.68 1.21,259.76 1.14,259.83 1.04,259.88 0.95,259.93 0.84,259.94 0.74,259.96 0.63,259.94 0.53,259.92 0.43,259.87 0.34,259.82 0.27,259.74 0.20,259.66 0.16,259.56 0.11,259.47 0.10,259.36 0.09,259.26 0.12,259.15 0.14,259.05 0.20,258.96 0.26,258.87 0.34,258.80 0.42,258.73 0.52,258.70 0.62,258.66 0.73,258.66 0.83,258.65 0.93,258.68 1.04,258.71 1.12,258.77 1.21,258.84 1.27,258.92 1.33,259.01 1.37,259.11 1.40,259.21 1.40,259.32 1.39,259.42 1.36,259.52 1.32,259.62 1.26,259.71 1.19,259.79 1.10,259.85 1.01,259.90 0.91,259.93 0.81,259.96 0.70,259.95 0.59,259.94 0.50,259.90 0.40,259.86 0.32,259.79 0.24,259.72 0.19,259.63 0.13,259.53 0.11,259.43 0.09,259.33 0.09,259.33 0.09,259.33 -0.15,256.28 -0.40,253.23 -0.86,246.03 -1.33,238.84 -1.33,230.58 -1.33,222.33 -1.28,211.56 -1.23,200.79 -1.12,191.50 -1.01,182.22 -0.75,172.14 -0.49,162.07 -0.50,150.67 -0.51,139.28 -0.53,130.37 -0.54,121.46 -0.56,112.24 -0.57,103.01 -0.58,93.66 -0.58,84.30 -0.58,74.02 -0.58,63.74 -0.59,56.23 -0.60,48.72 -0.61,41.54 -0.63,34.36 -0.66,28.59 -0.70,22.82 -0.80,19.14 -0.89,15.46 -1.13,12.78 -1.37,10.10 -1.34,7.67 -1.31,5.24 -1.17,2.62 -1.04,0 -1.02,-0.12 -1.01,-0.24 -0.96,-0.36 -0.92,-0.48 -0.85,-0.58 -0.78,-0.69 -0.68,-0.77 -0.59,-0.85 -0.48,-0.91 -0.36,-0.97 -0.24,-1.00 -0.12,-1.03 0.00,-1.03 0.12,-1.03 0.24,-1.00 0.36,-0.97 0.48,-0.91 0.59,-0.85 0.68,-0.77 0.78,-0.69 0.85,-0.58 0.92,-0.48 0.96,-0.36 1.01,-0.24 1.02,-0.12 1.04,0.00 1.04,0.00 L 1.04,0 Z"></path></g><g transform="translate(425.12802972143555 104.93856753124999) rotate(0 0.4564361572265625 131.90985107421875)" stroke="none"><path fill="#1e1e1e" d="M 1.04,0 Q 1.04,0 1.17,2.62 1.31,5.24 1.34,7.67 1.37,10.10 1.66,12.63 1.94,15.17 2.07,18.95 2.20,22.73 2.26,28.53 2.31,34.34 2.34,41.52 2.36,48.71 2.37,56.22 2.38,63.74 2.39,74.02 2.40,84.30 2.39,93.66 2.39,103.01 2.38,112.24 2.37,121.46 2.35,130.37 2.34,139.28 2.33,150.67 2.32,162.07 2.05,172.18 1.79,182.29 1.67,191.56 1.56,200.82 1.52,211.58 1.47,222.35 1.43,230.59 1.39,238.84 1.43,246.00 1.47,253.17 1.44,256.22 1.40,259.28 1.39,259.39 1.38,259.49 1.33,259.59 1.28,259.68 1.21,259.76 1.14,259.83 1.04,259.88 0.95,259.93 0.84,259.94 0.74,259.96 0.63,259.94 0.53,259.92 0.43,259.87 0.34,259.82 0.27,259.74 0.20,259.66 0.16,259.56 0.11,259.47 0.10,259.36 0.09,259.26 0.12,259.15 0.14,259.05 0.20,258.96 0.26,258.87 0.34,258.80 0.42,258.73 0.52,258.70 0.62,258.66 0.73,258.66 0.83,258.65 0.93,258.68 1.04,258.71 1.12,258.77 1.21,258.84 1.27,258.92 1.33,259.01 1.37,259.11 1.40,259.21 1.40,259.32 1.39,259.42 1.36,259.52 1.32,259.62 1.26,259.71 1.19,259.79 1.10,259.85 1.01,259.90 0.91,259.93 0.81,259.96 0.70,259.95 0.59,259.94 0.50,259.90 0.40,259.86 0.32,259.79 0.24,259.72 0.19,259.63 0.13,259.53 0.11,259.43 0.09,259.33 0.09,259.33 0.09,259.33 -0.15,256.28 -0.40,253.23 -0.86,246.03 -1.33,238.84 -1.33,230.58 -1.33,222.33 -1.28,211.56 -1.23,200.79 -1.12,191.50 -1.01,182.22 -0.75,172.14 -0.49,162.07 -0.50,150.67 -0.51,139.28 -0.53,130.37 -0.54,121.46 -0.56,112.24 -0.57,103.01 -0.58,93.66 -0.58,84.30 -0.58,74.02 -0.58,63.74 -0.59,56.23 -0.60,48.72 -0.61,41.54 -0.63,34.36 -0.66,28.59 -0.70,22.82 -0.80,19.14 -0.89,15.46 -1.13,12.78 -1.37,10.10 -1.34,7.67 -1.31,5.24 -1.17,2.62 -1.04,0 -1.02,-0.12 -1.01,-0.24 -0.96,-0.36 -0.92,-0.48 -0.85,-0.58 -0.78,-0.69 -0.68,-0.77 -0.59,-0.85 -0.48,-0.91 -0.36,-0.97 -0.24,-1.00 -0.12,-1.03 0.00,-1.03 0.12,-1.03 0.24,-1.00 0.36,-0.97 0.48,-0.91 0.59,-0.85 0.68,-0.77 0.78,-0.69 0.85,-0.58 0.92,-0.48 0.96,-0.36 1.01,-0.24 1.02,-0.12 1.04,0.00 1.04,0.00 L 1.04,0 Z"></path></g><g transform="translate(434.2567299777832 94.89697207226561) rotate(0 102.24154663085938 -0.912872314453125)" stroke="none"><path fill="#1e1e1e" d="M -0.12,-1.08 Q -0.12,-1.08 2.22,-1.46 4.57,-1.83 8.25,-1.96 11.93,-2.09 19.24,-2.42 26.55,-2.76 34.40,-2.89 42.25,-3.03 51.36,-3.09 60.47,-3.15 71.17,-3.17 81.86,-3.20 94.28,-3.21 106.70,-3.22 120.39,-2.96 134.08,-2.70 154.32,-2.51 174.55,-2.32 183.16,-1.98 191.76,-1.63 191.87,-1.62 191.97,-1.60 192.06,-1.55 192.16,-1.50 192.23,-1.42 192.30,-1.34 192.35,-1.25 192.39,-1.15 192.40,-1.04 192.41,-0.94 192.39,-0.83 192.37,-0.73 192.31,-0.64 192.26,-0.55 192.17,-0.48 192.09,-0.41 191.99,-0.37 191.90,-0.33 191.79,-0.33 191.68,-0.32 191.58,-0.35 191.48,-0.38 191.39,-0.44 191.30,-0.50 191.24,-0.59 191.18,-0.67 191.14,-0.77 191.11,-0.87 191.11,-0.98 191.11,-1.09 191.14,-1.19 191.18,-1.29 191.24,-1.37 191.31,-1.46 191.40,-1.52 191.49,-1.57 191.59,-1.60 191.69,-1.63 191.80,-1.62 191.90,-1.62 192.00,-1.58 192.10,-1.54 192.18,-1.47 192.26,-1.40 192.31,-1.31 192.37,-1.22 192.39,-1.11 192.41,-1.01 192.40,-0.90 192.39,-0.80 192.34,-0.70 192.30,-0.61 192.23,-0.53 192.15,-0.45 192.06,-0.40 191.96,-0.35 191.86,-0.34 191.75,-0.32 191.75,-0.32 191.75,-0.32 183.15,-0.07 174.54,0.17 154.28,0.14 134.03,0.11 120.36,-0.14 106.70,-0.40 94.29,-0.39 81.87,-0.38 71.18,-0.35 60.49,-0.33 51.39,-0.28 42.30,-0.22 34.48,-0.10 26.67,0.02 19.34,0.31 12.02,0.59 8.44,0.69 4.86,0.78 2.49,0.93 0.12,1.08 -0.01,1.08 -0.14,1.08 -0.27,1.05 -0.39,1.02 -0.51,0.95 -0.63,0.89 -0.72,0.80 -0.82,0.71 -0.90,0.60 -0.97,0.49 -1.02,0.37 -1.06,0.25 -1.08,0.12 -1.09,-0.01 -1.07,-0.14 -1.06,-0.27 -1.01,-0.39 -0.96,-0.51 -0.88,-0.62 -0.81,-0.73 -0.71,-0.82 -0.61,-0.90 -0.49,-0.96 -0.37,-1.02 -0.24,-1.05 -0.12,-1.08 -0.12,-1.08 L -0.12,-1.08 Z"></path></g><g transform="translate(434.2567299777832 380.6255790722656) rotate(0 102.24154663085938 -0.912872314453125)" stroke="none"><path fill="#1e1e1e" d="M -0.12,-1.08 Q -0.12,-1.08 2.22,-1.46 4.57,-1.83 8.25,-1.96 11.93,-2.09 19.24,-2.42 26.55,-2.76 34.40,-2.89 42.25,-3.03 51.36,-3.09 60.47,-3.15 71.17,-3.17 81.86,-3.20 94.28,-3.21 106.70,-3.22 120.39,-2.96 134.08,-2.70 154.32,-2.51 174.55,-2.32 183.16,-1.98 191.76,-1.63 191.87,-1.62 191.97,-1.60 192.06,-1.55 192.16,-1.50 192.23,-1.42 192.30,-1.34 192.35,-1.25 192.39,-1.15 192.40,-1.04 192.41,-0.94 192.39,-0.83 192.37,-0.73 192.31,-0.64 192.26,-0.55 192.17,-0.48 192.09,-0.41 191.99,-0.37 191.90,-0.33 191.79,-0.33 191.68,-0.32 191.58,-0.35 191.48,-0.38 191.39,-0.44 191.30,-0.50 191.24,-0.59 191.18,-0.67 191.14,-0.77 191.11,-0.87 191.11,-0.98 191.11,-1.09 191.14,-1.19 191.18,-1.29 191.24,-1.37 191.31,-1.46 191.40,-1.52 191.49,-1.57 191.59,-1.60 191.69,-1.63 191.80,-1.62 191.90,-1.62 192.00,-1.58 192.10,-1.54 192.18,-1.47 192.26,-1.40 192.31,-1.31 192.37,-1.22 192.39,-1.11 192.41,-1.01 192.40,-0.90 192.39,-0.80 192.34,-0.70 192.30,-0.61 192.23,-0.53 192.15,-0.45 192.06,-0.40 191.96,-0.35 191.86,-0.34 191.75,-0.32 191.75,-0.32 191.75,-0.32 183.15,-0.07 174.54,0.17 154.28,0.14 134.03,0.11 120.36,-0.14 106.70,-0.40 94.29,-0.39 81.87,-0.38 71.18,-0.35 60.49,-0.33 51.39,-0.28 42.30,-0.22 34.48,-0.10 26.67,0.02 19.34,0.31 12.02,0.59 8.44,0.69 4.86,0.78 2.49,0.93 0.12,1.08 -0.01,1.08 -0.14,1.08 -0.27,1.05 -0.39,1.02 -0.51,0.95 -0.63,0.89 -0.72,0.80 -0.82,0.71 -0.90,0.60 -0.97,0.49 -1.02,0.37 -1.06,0.25 -1.08,0.12 -1.09,-0.01 -1.07,-0.14 -1.06,-0.27 -1.01,-0.39 -0.96,-0.51 -0.88,-0.62 -0.81,-0.73 -0.71,-0.82 -0.61,-0.90 -0.49,-0.96 -0.37,-1.02 -0.24,-1.05 -0.12,-1.08 -0.12,-1.08 L -0.12,-1.08 Z"></path></g><g transform="translate(640.5655602390136 106.76431216015624) rotate(0 0.4564361572265625 131.90985107421875)" stroke="none"><path fill="#1e1e1e" d="M 1.04,0 Q 1.04,0 1.17,2.62 1.31,5.24 1.34,7.67 1.37,10.10 1.66,12.63 1.94,15.17 2.07,18.95 2.20,22.73 2.26,28.53 2.31,34.34 2.34,41.52 2.36,48.71 2.37,56.22 2.38,63.74 2.39,74.02 2.40,84.30 2.39,93.66 2.39,103.01 2.38,112.24 2.37,121.46 2.35,130.37 2.34,139.28 2.33,150.67 2.32,162.07 2.05,172.18 1.79,182.29 1.67,191.56 1.56,200.82 1.52,211.58 1.47,222.35 1.43,230.59 1.39,238.84 1.43,246.00 1.47,253.17 1.44,256.22 1.40,259.28 1.39,259.39 1.38,259.49 1.33,259.59 1.28,259.68 1.21,259.76 1.14,259.83 1.04,259.88 0.95,259.93 0.84,259.94 0.74,259.96 0.63,259.94 0.53,259.92 0.43,259.87 0.34,259.82 0.27,259.74 0.20,259.66 0.16,259.56 0.11,259.47 0.10,259.36 0.09,259.26 0.12,259.15 0.14,259.05 0.20,258.96 0.26,258.87 0.34,258.80 0.42,258.73 0.52,258.70 0.62,258.66 0.73,258.66 0.83,258.65 0.93,258.68 1.04,258.71 1.12,258.77 1.21,258.84 1.27,258.92 1.33,259.01 1.37,259.11 1.40,259.21 1.40,259.32 1.39,259.42 1.36,259.52 1.32,259.62 1.26,259.71 1.19,259.79 1.10,259.85 1.01,259.90 0.91,259.93 0.81,259.96 0.70,259.95 0.59,259.94 0.50,259.90 0.40,259.86 0.32,259.79 0.24,259.72 0.19,259.63 0.13,259.53 0.11,259.43 0.09,259.33 0.09,259.33 0.09,259.33 -0.15,256.28 -0.40,253.23 -0.86,246.03 -1.33,238.84 -1.33,230.58 -1.33,222.33 -1.28,211.56 -1.23,200.79 -1.12,191.50 -1.01,182.22 -0.75,172.14 -0.49,162.07 -0.50,150.67 -0.51,139.28 -0.53,130.37 -0.54,121.46 -0.56,112.24 -0.57,103.01 -0.58,93.66 -0.58,84.30 -0.58,74.02 -0.58,63.74 -0.59,56.23 -0.60,48.72 -0.61,41.54 -0.63,34.36 -0.66,28.59 -0.70,22.82 -0.80,19.14 -0.89,15.46 -1.13,12.78 -1.37,10.10 -1.34,7.67 -1.31,5.24 -1.17,2.62 -1.04,0 -1.02,-0.12 -1.01,-0.24 -0.96,-0.36 -0.92,-0.48 -0.85,-0.58 -0.78,-0.69 -0.68,-0.77 -0.59,-0.85 -0.48,-0.91 -0.36,-0.97 -0.24,-1.00 -0.12,-1.03 0.00,-1.03 0.12,-1.03 0.24,-1.00 0.36,-0.97 0.48,-0.91 0.59,-0.85 0.68,-0.77 0.78,-0.69 0.85,-0.58 0.92,-0.48 0.96,-0.36 1.01,-0.24 1.02,-0.12 1.04,0.00 1.04,0.00 L 1.04,0 Z"></path></g><g transform="translate(321.0237074575129 99.09829909515383) rotate(0 22.73092376917066 -12.761229483276452)" stroke="none"><path fill="#1e1e1e" d="M -0.55,-0.96 Q -0.55,-0.96 0.95,-2.06 2.45,-3.15 4.52,-4.26 6.60,-5.36 9.32,-6.75 12.03,-8.13 14.30,-9.39 16.58,-10.65 22.85,-13.93 29.13,-17.21 33.66,-19.82 38.19,-22.43 40.24,-23.38 42.29,-24.33 42.39,-24.37 42.49,-24.41 42.59,-24.42 42.70,-24.43 42.80,-24.40 42.90,-24.37 42.99,-24.31 43.08,-24.26 43.15,-24.17 43.21,-24.09 43.25,-23.99 43.28,-23.89 43.28,-23.78 43.28,-23.68 43.25,-23.57 43.22,-23.47 43.16,-23.39 43.09,-23.30 43.01,-23.24 42.92,-23.18 42.82,-23.15 42.71,-23.12 42.61,-23.13 42.50,-23.13 42.40,-23.17 42.30,-23.21 42.22,-23.28 42.14,-23.34 42.08,-23.43 42.03,-23.52 42.00,-23.63 41.98,-23.73 41.99,-23.84 42.00,-23.94 42.04,-24.04 42.09,-24.14 42.16,-24.21 42.23,-24.29 42.33,-24.34 42.42,-24.39 42.52,-24.41 42.63,-24.43 42.73,-24.41 42.84,-24.40 42.93,-24.35 43.03,-24.30 43.10,-24.23 43.17,-24.15 43.22,-24.05 43.27,-23.96 43.28,-23.85 43.29,-23.75 43.27,-23.64 43.25,-23.54 43.19,-23.45 43.14,-23.35 43.06,-23.28 42.98,-23.22 42.98,-23.22 42.98,-23.22 41.21,-21.81 39.44,-20.40 34.99,-17.46 30.54,-14.52 24.32,-11.22 18.09,-7.91 15.77,-6.63 13.45,-5.34 10.74,-3.97 8.04,-2.61 6.00,-1.56 3.96,-0.51 2.25,0.22 0.55,0.96 0.42,1.02 0.30,1.07 0.17,1.09 0.03,1.11 -0.09,1.10 -0.22,1.09 -0.35,1.04 -0.48,1.00 -0.59,0.93 -0.70,0.86 -0.80,0.76 -0.89,0.66 -0.96,0.54 -1.02,0.43 -1.06,0.30 -1.10,0.17 -1.10,0.03 -1.11,-0.09 -1.08,-0.22 -1.05,-0.35 -0.99,-0.47 -0.93,-0.60 -0.85,-0.70 -0.76,-0.80 -0.66,-0.88 -0.55,-0.96 -0.55,-0.96 L -0.55,-0.96 Z"></path></g><g transform="translate(376.0564604437828 71.98068477673854) rotate(0 21.53457058689682 9.969707617517173)" stroke="none"><path fill="#1e1e1e" d="M 0.49,-0.85 Q 0.49,-0.85 2.20,-0.13 3.91,0.59 5.97,1.62 8.02,2.65 11.14,3.99 14.26,5.33 16.96,6.36 19.65,7.39 24.46,9.22 29.28,11.06 32.48,12.64 35.68,14.21 38.82,16.38 41.96,18.54 42.04,18.61 42.13,18.68 42.18,18.77 42.24,18.86 42.26,18.96 42.29,19.06 42.28,19.17 42.27,19.28 42.23,19.37 42.18,19.47 42.11,19.55 42.04,19.63 41.95,19.68 41.86,19.73 41.75,19.75 41.65,19.77 41.54,19.75 41.44,19.74 41.34,19.69 41.25,19.64 41.17,19.57 41.10,19.49 41.05,19.40 41.00,19.30 40.99,19.19 40.98,19.09 41.00,18.99 41.02,18.88 41.07,18.79 41.13,18.70 41.21,18.63 41.28,18.56 41.38,18.51 41.48,18.47 41.59,18.47 41.69,18.46 41.80,18.48 41.90,18.51 41.99,18.57 42.08,18.63 42.14,18.71 42.21,18.79 42.24,18.89 42.28,18.99 42.28,19.10 42.28,19.21 42.25,19.31 42.22,19.41 42.16,19.49 42.09,19.58 42.01,19.64 41.92,19.70 41.82,19.73 41.72,19.76 41.61,19.76 41.51,19.76 41.41,19.72 41.31,19.68 41.31,19.68 41.31,19.68 37.96,18.12 34.61,16.55 31.42,15.21 28.22,13.86 23.39,12.06 18.55,10.25 15.80,9.19 13.05,8.14 9.84,6.73 6.63,5.31 4.56,4.19 2.50,3.07 1.00,1.96 -0.49,0.85 -0.58,0.78 -0.68,0.71 -0.75,0.62 -0.83,0.53 -0.88,0.42 -0.93,0.31 -0.95,0.20 -0.98,0.08 -0.98,-0.03 -0.97,-0.15 -0.94,-0.26 -0.91,-0.38 -0.85,-0.48 -0.79,-0.58 -0.71,-0.67 -0.62,-0.76 -0.52,-0.82 -0.42,-0.89 -0.31,-0.92 -0.20,-0.96 -0.08,-0.97 0.03,-0.98 0.15,-0.96 0.27,-0.95 0.38,-0.90 0.49,-0.85 0.49,-0.85 L 0.49,-0.85 Z"></path></g><g transform="translate(372.8661764033039 19.340638155016336) rotate(0 -27.51638982475791 41.075196983965554)" stroke="none"><path fill="#1e1e1e" d="M 0.85,0.63 Q 0.85,0.63 0.34,1.69 -0.15,2.74 -2.45,6.94 -4.74,11.14 -7.82,16.42 -10.89,21.70 -14.04,26.92 -17.19,32.15 -20.60,37.37 -24.01,42.59 -27.77,47.81 -31.53,53.02 -36.38,58.92 -41.22,64.81 -44.43,68.87 -47.64,72.94 -50.48,76.81 -53.33,80.68 -53.40,80.76 -53.47,80.84 -53.57,80.89 -53.66,80.94 -53.76,80.97 -53.87,80.99 -53.97,80.97 -54.08,80.96 -54.17,80.91 -54.27,80.87 -54.34,80.79 -54.42,80.72 -54.47,80.62 -54.52,80.53 -54.53,80.42 -54.55,80.32 -54.53,80.21 -54.51,80.11 -54.46,80.02 -54.40,79.92 -54.33,79.85 -54.25,79.78 -54.15,79.74 -54.05,79.69 -53.95,79.68 -53.84,79.67 -53.74,79.70 -53.63,79.72 -53.54,79.78 -53.45,79.84 -53.39,79.92 -53.32,80.00 -53.28,80.10 -53.25,80.20 -53.24,80.31 -53.24,80.41 -53.27,80.51 -53.30,80.62 -53.36,80.70 -53.42,80.79 -53.51,80.85 -53.59,80.92 -53.69,80.95 -53.79,80.98 -53.90,80.98 -54.01,80.98 -54.11,80.94 -54.21,80.90 -54.29,80.84 -54.37,80.77 -54.43,80.68 -54.49,80.59 -54.52,80.49 -54.54,80.39 -54.54,80.28 -54.53,80.18 -54.49,80.08 -54.45,79.98 -54.45,79.98 -54.45,79.98 -52.13,75.62 -49.81,71.25 -46.64,67.11 -43.48,62.97 -38.73,57.11 -33.98,51.26 -30.26,46.10 -26.55,40.93 -23.17,35.76 -19.79,30.58 -16.66,25.37 -13.53,20.16 -10.48,14.91 -7.42,9.67 -5.01,5.29 -2.59,0.92 -1.72,0.14 -0.85,-0.63 -0.76,-0.73 -0.67,-0.82 -0.56,-0.89 -0.45,-0.96 -0.33,-1.00 -0.21,-1.04 -0.08,-1.05 0.04,-1.06 0.16,-1.04 0.29,-1.02 0.41,-0.97 0.53,-0.92 0.63,-0.84 0.73,-0.76 0.81,-0.66 0.89,-0.56 0.95,-0.45 1.00,-0.33 1.03,-0.21 1.05,-0.08 1.05,0.04 1.04,0.16 1.01,0.29 0.97,0.41 0.91,0.52 0.85,0.63 0.85,0.63 L 0.85,0.63 Z"></path></g><g transform="translate(376.854038119714 19.340638155016336) rotate(0 22.730937100793625 39.08125279413753)" stroke="none"><path fill="#1e1e1e" d="M 0.92,-0.39 Q 0.92,-0.39 2.51,2.72 4.10,5.84 6.29,10.86 8.49,15.89 11.25,21.91 14.01,27.94 17.22,33.90 20.44,39.86 24.75,46.50 29.06,53.14 32.46,58.04 35.87,62.95 38.77,67.21 41.67,71.47 42.86,73.31 44.05,75.16 44.10,75.26 44.15,75.35 44.17,75.45 44.18,75.56 44.16,75.66 44.15,75.77 44.09,75.86 44.04,75.96 43.97,76.03 43.89,76.10 43.79,76.14 43.69,76.19 43.59,76.20 43.48,76.21 43.38,76.18 43.27,76.16 43.18,76.10 43.09,76.05 43.03,75.97 42.96,75.88 42.92,75.78 42.88,75.69 42.88,75.58 42.87,75.47 42.90,75.37 42.93,75.27 42.99,75.18 43.05,75.09 43.14,75.03 43.22,74.97 43.33,74.94 43.43,74.90 43.53,74.90 43.64,74.91 43.74,74.94 43.84,74.98 43.92,75.04 44.01,75.11 44.07,75.19 44.12,75.28 44.15,75.39 44.18,75.49 44.17,75.59 44.16,75.70 44.12,75.80 44.08,75.90 44.01,75.98 43.94,76.06 43.85,76.11 43.76,76.16 43.66,76.19 43.55,76.21 43.45,76.20 43.34,76.18 43.25,76.14 43.15,76.09 43.07,76.02 43.00,75.94 43.00,75.94 43.00,75.94 41.58,74.26 40.16,72.59 36.91,68.55 33.66,64.51 30.15,59.61 26.64,54.72 22.23,47.99 17.83,41.27 14.57,35.22 11.31,29.18 8.54,23.12 5.77,17.07 3.58,12.03 1.39,7.00 0.23,3.69 -0.92,0.39 -0.95,0.28 -0.99,0.16 -0.99,0.04 -1.00,-0.07 -0.97,-0.19 -0.95,-0.31 -0.90,-0.42 -0.85,-0.53 -0.77,-0.63 -0.69,-0.72 -0.60,-0.79 -0.50,-0.87 -0.39,-0.91 -0.28,-0.96 -0.16,-0.98 -0.04,-1.00 0.07,-0.99 0.19,-0.98 0.31,-0.94 0.42,-0.91 0.53,-0.84 0.63,-0.78 0.71,-0.69 0.80,-0.60 0.86,-0.50 0.92,-0.39 0.92,-0.39 L 0.92,-0.39 Z"></path></g><g transform="translate(16.349501858593726 16.9479317904686) rotate(0 47.455798393980785 41.87276132827381)" stroke="none"><path fill="#1e1e1e" d="M 0.72,-0.87 Q 0.72,-0.87 2.18,0.17 3.63,1.23 5.56,2.59 7.49,3.94 11.37,7.33 15.25,10.71 20.09,15.12 24.93,19.53 30.42,24.38 35.90,29.23 41.45,34.28 46.99,39.34 52.55,44.23 58.10,49.12 64.82,55.36 71.54,61.59 76.21,65.85 80.88,70.11 85.08,73.82 89.28,77.53 90.96,79.24 92.64,80.95 92.71,81.04 92.78,81.12 92.82,81.21 92.85,81.31 92.86,81.42 92.87,81.53 92.84,81.63 92.81,81.73 92.75,81.82 92.69,81.91 92.61,81.97 92.52,82.04 92.42,82.07 92.32,82.10 92.21,82.10 92.11,82.10 92.01,82.07 91.91,82.04 91.82,81.97 91.74,81.91 91.68,81.82 91.62,81.73 91.59,81.63 91.56,81.53 91.57,81.42 91.57,81.31 91.61,81.22 91.65,81.12 91.72,81.04 91.79,80.95 91.88,80.90 91.97,80.85 92.07,80.82 92.18,80.80 92.28,80.81 92.39,80.82 92.49,80.87 92.58,80.91 92.66,80.98 92.74,81.06 92.79,81.15 92.84,81.25 92.85,81.35 92.87,81.45 92.85,81.56 92.84,81.66 92.79,81.76 92.74,81.85 92.66,81.93 92.58,82.00 92.49,82.04 92.39,82.09 92.28,82.10 92.18,82.11 92.07,82.09 91.97,82.07 91.88,82.01 91.79,81.96 91.79,81.96 91.79,81.96 89.82,80.58 87.86,79.20 83.48,75.63 79.11,72.06 74.40,67.84 69.68,63.61 62.96,57.43 56.24,51.24 50.65,46.35 45.07,41.45 39.53,36.42 33.99,31.39 28.49,26.53 22.98,21.67 18.16,17.28 13.34,12.88 9.59,9.57 5.84,6.25 3.85,4.80 1.86,3.35 0.57,2.11 -0.72,0.87 -0.82,0.77 -0.91,0.67 -0.98,0.55 -1.05,0.43 -1.08,0.30 -1.12,0.17 -1.12,0.03 -1.13,-0.10 -1.10,-0.23 -1.07,-0.37 -1.01,-0.49 -0.95,-0.61 -0.86,-0.72 -0.77,-0.82 -0.66,-0.90 -0.55,-0.99 -0.43,-1.04 -0.30,-1.09 -0.16,-1.11 -0.03,-1.13 0.10,-1.12 0.23,-1.11 0.36,-1.06 0.49,-1.02 0.61,-0.94 0.72,-0.87 0.72,-0.87 L 0.72,-0.87 Z"></path></g><g transform="translate(11.564049134629386 26.518837238397168) rotate(0 39.87881713844578 35.49215325244711)" stroke="none"><path fill="#1e1e1e" d="M 0,-0.73 Q 0,-0.73 1.09,-1.04 2.19,-1.35 3.42,-0.27 4.65,0.79 6.60,2.76 8.56,4.74 11.00,7.18 13.44,9.63 16.76,12.71 20.07,15.79 24.47,19.85 28.87,23.92 34.63,29.07 40.39,34.23 45.35,38.48 50.31,42.73 54.28,46.39 58.26,50.06 61.29,52.75 64.32,55.44 66.97,57.75 69.61,60.06 72.73,63.24 75.85,66.42 77.02,67.90 78.19,69.39 78.26,69.48 78.32,69.56 78.36,69.66 78.39,69.76 78.39,69.87 78.39,69.98 78.36,70.08 78.32,70.18 78.26,70.26 78.19,70.35 78.11,70.41 78.02,70.46 77.91,70.49 77.81,70.52 77.71,70.52 77.60,70.51 77.50,70.47 77.40,70.43 77.32,70.36 77.24,70.29 77.19,70.20 77.13,70.11 77.11,70.01 77.09,69.90 77.10,69.80 77.11,69.69 77.15,69.60 77.20,69.50 77.27,69.42 77.35,69.35 77.44,69.30 77.53,69.25 77.64,69.23 77.74,69.21 77.85,69.23 77.95,69.25 78.05,69.30 78.14,69.35 78.21,69.42 78.29,69.50 78.33,69.60 78.38,69.69 78.39,69.80 78.40,69.90 78.37,70.01 78.35,70.11 78.30,70.20 78.24,70.29 78.16,70.36 78.08,70.43 77.98,70.47 77.88,70.51 77.78,70.52 77.67,70.52 77.57,70.49 77.47,70.46 77.38,70.40 77.29,70.34 77.29,70.34 77.29,70.34 75.74,69.25 74.20,68.16 70.91,65.26 67.63,62.36 64.93,60.09 62.23,57.81 59.15,55.11 56.08,52.41 52.15,48.79 48.23,45.16 43.24,40.89 38.26,36.61 32.49,31.43 26.71,26.25 22.32,22.17 17.93,18.09 14.58,14.95 11.24,11.82 8.80,9.36 6.36,6.90 4.38,4.89 2.40,2.87 1.94,2.11 1.47,1.35 0.73,1.04 0,0.73 -0.08,0.72 -0.17,0.71 -0.26,0.68 -0.34,0.65 -0.41,0.60 -0.49,0.55 -0.54,0.48 -0.60,0.42 -0.65,0.34 -0.69,0.26 -0.71,0.17 -0.73,0.08 -0.73,-0.00 -0.73,-0.08 -0.71,-0.17 -0.69,-0.26 -0.65,-0.34 -0.60,-0.42 -0.54,-0.48 -0.49,-0.55 -0.41,-0.60 -0.34,-0.65 -0.26,-0.68 -0.17,-0.71 -0.08,-0.72 0.00,-0.73 0.00,-0.73 L 0,-0.73 Z"></path></g><g transform="translate(97.70230481897062 375.05974835541826) rotate(0 -37.884879614429224 42.27153683461643)" stroke="none"><path fill="#1e1e1e" d="M 0.75,0.60 Q 0.75,0.60 0.03,1.91 -0.67,3.22 -2.24,4.90 -3.81,6.59 -5.82,8.87 -7.83,11.15 -9.59,13.26 -11.36,15.37 -17.86,22.71 -24.36,30.05 -29.64,36.14 -34.91,42.23 -39.68,47.58 -44.46,52.93 -48.54,57.50 -52.63,62.07 -55.95,66.05 -59.27,70.03 -61.87,72.90 -64.47,75.76 -67.63,78.40 -70.80,81.04 -72.14,82.14 -73.47,83.24 -73.56,83.30 -73.65,83.36 -73.75,83.39 -73.85,83.42 -73.96,83.42 -74.06,83.41 -74.16,83.37 -74.26,83.33 -74.34,83.27 -74.42,83.20 -74.48,83.11 -74.53,83.02 -74.56,82.91 -74.58,82.81 -74.57,82.70 -74.56,82.60 -74.52,82.50 -74.47,82.40 -74.40,82.33 -74.33,82.25 -74.23,82.20 -74.14,82.15 -74.04,82.13 -73.93,82.11 -73.83,82.13 -73.72,82.15 -73.63,82.19 -73.53,82.24 -73.46,82.32 -73.39,82.40 -73.34,82.49 -73.30,82.59 -73.28,82.69 -73.27,82.80 -73.29,82.90 -73.31,83.01 -73.37,83.10 -73.42,83.19 -73.50,83.26 -73.58,83.33 -73.68,83.37 -73.78,83.41 -73.89,83.42 -73.99,83.42 -74.10,83.39 -74.20,83.37 -74.29,83.31 -74.37,83.25 -74.44,83.17 -74.50,83.08 -74.54,82.98 -74.57,82.88 -74.57,82.77 -74.58,82.67 -74.54,82.57 -74.51,82.47 -74.45,82.38 -74.38,82.30 -74.38,82.30 -74.38,82.30 -73.23,81.00 -72.08,79.71 -69.40,76.72 -66.71,73.73 -64.17,70.90 -61.63,68.06 -58.27,64.04 -54.91,60.02 -50.82,55.46 -46.72,50.91 -41.96,45.58 -37.20,40.24 -31.91,34.14 -26.63,28.05 -20.15,20.74 -13.68,13.43 -11.88,11.29 -10.09,9.16 -8.04,6.84 -6.00,4.53 -4.49,2.94 -2.99,1.36 -1.87,0.38 -0.75,-0.60 -0.66,-0.68 -0.58,-0.76 -0.48,-0.82 -0.38,-0.88 -0.27,-0.91 -0.16,-0.94 -0.04,-0.95 0.06,-0.95 0.18,-0.93 0.29,-0.91 0.40,-0.86 0.50,-0.81 0.59,-0.74 0.68,-0.67 0.75,-0.58 0.82,-0.48 0.87,-0.38 0.92,-0.27 0.94,-0.16 0.96,-0.04 0.95,0.06 0.94,0.18 0.90,0.29 0.87,0.40 0.81,0.50 0.75,0.60 0.75,0.60 L 0.75,0.60 Z"></path></g><g transform="translate(100.89261552269545 384.6306271401009) rotate(0 -36.289730928378276 41.473985821931166)" stroke="none"><path fill="#1e1e1e" d="M 0.77,0.51 Q 0.77,0.51 0.02,2.00 -0.72,3.49 -1.97,5.68 -3.21,7.86 -5.87,11.19 -8.53,14.51 -14.21,21.41 -19.89,28.31 -25.52,34.70 -31.16,41.09 -36.53,47.23 -41.90,53.37 -46.95,58.76 -52.01,64.14 -56.22,68.69 -60.43,73.25 -63.68,76.31 -66.94,79.36 -68.53,80.42 -70.13,81.47 -70.22,81.53 -70.30,81.59 -70.40,81.62 -70.51,81.65 -70.61,81.65 -70.72,81.65 -70.82,81.61 -70.92,81.57 -71.00,81.50 -71.08,81.43 -71.14,81.34 -71.19,81.25 -71.22,81.15 -71.24,81.05 -71.23,80.94 -71.22,80.84 -71.18,80.74 -71.14,80.64 -71.06,80.56 -70.99,80.49 -70.90,80.43 -70.81,80.38 -70.70,80.36 -70.60,80.35 -70.49,80.36 -70.39,80.38 -70.29,80.42 -70.20,80.47 -70.12,80.55 -70.05,80.63 -70.00,80.72 -69.96,80.82 -69.94,80.92 -69.93,81.03 -69.95,81.13 -69.97,81.24 -70.03,81.33 -70.08,81.42 -70.16,81.49 -70.24,81.56 -70.34,81.60 -70.44,81.64 -70.54,81.65 -70.65,81.66 -70.75,81.63 -70.85,81.60 -70.94,81.54 -71.03,81.49 -71.10,81.40 -71.16,81.32 -71.20,81.22 -71.23,81.12 -71.24,81.01 -71.24,80.91 -71.20,80.80 -71.17,80.70 -71.11,80.62 -71.05,80.53 -71.05,80.53 -71.05,80.53 -69.95,78.96 -68.86,77.39 -65.79,74.27 -62.72,71.14 -58.52,66.55 -54.32,61.97 -49.31,56.62 -44.29,51.28 -38.91,45.14 -33.53,39.00 -27.90,32.66 -22.27,26.33 -16.55,19.48 -10.83,12.64 -8.25,9.51 -5.67,6.39 -4.31,4.20 -2.94,2.01 -1.86,0.74 -0.77,-0.51 -0.70,-0.60 -0.63,-0.69 -0.54,-0.75 -0.44,-0.82 -0.34,-0.86 -0.23,-0.90 -0.12,-0.92 -0.01,-0.93 0.09,-0.92 0.20,-0.91 0.31,-0.87 0.42,-0.83 0.51,-0.77 0.61,-0.71 0.68,-0.62 0.76,-0.54 0.81,-0.44 0.87,-0.34 0.89,-0.23 0.92,-0.12 0.93,-0.01 0.93,0.09 0.90,0.20 0.88,0.31 0.83,0.41 0.77,0.52 0.77,0.51 L 0.77,0.51 Z"></path></g><g transform="translate(321.8212818005383 381.4403164363761) rotate(0 25.522445634929895 21.53457058689679)" stroke="none"><path fill="#1e1e1e" d="M 0.82,-0.71 Q 0.82,-0.71 2.34,0.77 3.86,2.25 6.73,4.90 9.60,7.55 11.75,9.63 13.90,11.72 19.12,15.99 24.35,20.26 28.64,23.70 32.94,27.13 35.91,29.51 38.88,31.90 41.48,33.82 44.08,35.75 47.05,38.60 50.01,41.45 50.09,41.53 50.16,41.61 50.20,41.70 50.25,41.80 50.26,41.91 50.27,42.01 50.25,42.11 50.22,42.22 50.17,42.31 50.11,42.40 50.03,42.47 49.95,42.54 49.85,42.58 49.75,42.61 49.65,42.62 49.54,42.63 49.44,42.60 49.34,42.57 49.25,42.51 49.16,42.45 49.10,42.36 49.03,42.28 49.00,42.18 48.97,42.08 48.97,41.97 48.97,41.86 49.00,41.76 49.04,41.66 49.10,41.58 49.16,41.49 49.25,41.44 49.34,41.38 49.44,41.35 49.55,41.32 49.65,41.33 49.76,41.33 49.86,41.37 49.96,41.41 50.04,41.48 50.12,41.55 50.17,41.64 50.23,41.73 50.25,41.84 50.27,41.94 50.26,42.05 50.25,42.15 50.20,42.25 50.16,42.34 50.08,42.42 50.01,42.50 49.92,42.55 49.82,42.60 49.72,42.61 49.61,42.63 49.51,42.61 49.40,42.59 49.31,42.54 49.22,42.49 49.22,42.49 49.22,42.49 45.72,40.39 42.22,38.29 39.54,36.36 36.85,34.43 33.88,32.05 30.90,29.67 26.59,26.22 22.29,22.77 16.97,18.39 11.66,14.02 9.54,11.93 7.41,9.84 4.52,7.00 1.63,4.16 0.40,2.44 -0.82,0.71 -0.90,0.60 -0.97,0.49 -1.01,0.36 -1.06,0.24 -1.07,0.11 -1.09,-0.01 -1.07,-0.14 -1.05,-0.27 -1.00,-0.40 -0.95,-0.52 -0.88,-0.63 -0.80,-0.73 -0.70,-0.82 -0.60,-0.90 -0.48,-0.96 -0.37,-1.02 -0.24,-1.05 -0.11,-1.08 0.01,-1.08 0.14,-1.08 0.27,-1.04 0.40,-1.01 0.51,-0.95 0.63,-0.88 0.73,-0.79 0.82,-0.71 0.82,-0.71 L 0.82,-0.71 Z"></path></g><g transform="translate(415.9353009125687 386.2257824919634) rotate(0 -20.338197407188503 19.540613065445797)" stroke="none"><path fill="#1e1e1e" d="M 0.65,0.97 Q 0.65,0.97 -0.64,2.01 -1.94,3.04 -3.58,4.53 -5.21,6.02 -7.01,8.21 -8.80,10.40 -11.20,13.22 -13.59,16.04 -16.49,18.88 -19.39,21.73 -23.12,25.43 -26.85,29.14 -30.12,31.87 -33.39,34.59 -36.24,36.57 -39.09,38.55 -39.18,38.61 -39.27,38.67 -39.38,38.69 -39.48,38.72 -39.59,38.71 -39.69,38.70 -39.79,38.66 -39.89,38.61 -39.97,38.54 -40.04,38.47 -40.10,38.38 -40.15,38.28 -40.17,38.18 -40.19,38.08 -40.17,37.97 -40.16,37.87 -40.11,37.77 -40.06,37.68 -39.99,37.60 -39.91,37.53 -39.82,37.48 -39.72,37.43 -39.62,37.42 -39.51,37.40 -39.41,37.43 -39.30,37.45 -39.21,37.50 -39.12,37.55 -39.05,37.63 -38.98,37.71 -38.93,37.81 -38.89,37.91 -38.88,38.01 -38.88,38.12 -38.90,38.22 -38.93,38.32 -38.99,38.41 -39.04,38.50 -39.13,38.57 -39.21,38.63 -39.31,38.67 -39.41,38.71 -39.52,38.71 -39.62,38.71 -39.72,38.68 -39.82,38.65 -39.91,38.59 -40.00,38.52 -40.06,38.44 -40.12,38.35 -40.15,38.25 -40.18,38.15 -40.18,38.04 -40.18,37.93 -40.14,37.83 -40.10,37.74 -40.03,37.65 -39.97,37.57 -39.97,37.57 -39.97,37.57 -37.65,34.94 -35.33,32.32 -32.21,29.60 -29.09,26.88 -25.35,23.17 -21.61,19.46 -18.79,16.72 -15.98,13.98 -13.56,11.21 -11.15,8.44 -9.18,6.11 -7.20,3.78 -5.38,2.20 -3.55,0.62 -2.10,-0.17 -0.65,-0.97 -0.52,-1.04 -0.39,-1.10 -0.26,-1.13 -0.12,-1.16 0.01,-1.16 0.16,-1.16 0.29,-1.12 0.43,-1.09 0.55,-1.02 0.68,-0.95 0.78,-0.86 0.89,-0.76 0.97,-0.64 1.05,-0.52 1.09,-0.39 1.14,-0.26 1.16,-0.12 1.17,0.01 1.15,0.15 1.13,0.29 1.08,0.43 1.03,0.56 0.95,0.67 0.86,0.79 0.76,0.88 0.65,0.97 0.65,0.97 L 0.65,0.97 Z"></path></g><g transform="translate(316.23825140064275 388.6184888565111) rotate(0 31.105476034825415 39.87883047006875)" stroke="none"><path fill="#1e1e1e" d="M 0.56,-0.65 Q 0.56,-0.65 2.37,0.48 4.19,1.62 5.91,3.92 7.64,6.22 9.99,10.44 12.34,14.66 15.38,19.83 18.42,25.01 22.68,31.77 26.95,38.54 31.02,43.89 35.09,49.24 38.42,53.36 41.75,57.47 44.53,60.58 47.30,63.68 50.69,66.83 54.07,69.98 56.57,72.63 59.07,75.29 60.04,76.50 61.01,77.71 61.07,77.80 61.14,77.88 61.17,77.98 61.20,78.08 61.20,78.19 61.20,78.29 61.17,78.39 61.14,78.50 61.07,78.58 61.01,78.66 60.92,78.72 60.83,78.78 60.73,78.81 60.63,78.84 60.52,78.83 60.41,78.83 60.32,78.79 60.22,78.75 60.14,78.68 60.05,78.61 60.00,78.52 59.95,78.43 59.92,78.33 59.90,78.22 59.91,78.12 59.92,78.01 59.97,77.91 60.01,77.82 60.09,77.74 60.16,77.66 60.25,77.61 60.35,77.56 60.45,77.55 60.56,77.53 60.66,77.55 60.77,77.56 60.86,77.61 60.95,77.66 61.03,77.74 61.10,77.82 61.14,77.92 61.19,78.01 61.20,78.12 61.21,78.22 61.19,78.33 61.17,78.43 61.11,78.52 61.06,78.61 60.97,78.68 60.89,78.75 60.79,78.79 60.70,78.83 60.59,78.83 60.48,78.84 60.38,78.81 60.28,78.78 60.19,78.72 60.10,78.66 60.10,78.66 60.10,78.66 58.84,77.76 57.58,76.85 54.82,74.52 52.07,72.19 48.49,69.01 44.91,65.82 42.08,62.66 39.25,59.50 35.88,55.35 32.52,51.20 28.37,45.73 24.22,40.26 19.95,33.43 15.67,26.61 12.64,21.38 9.61,16.16 7.39,12.09 5.17,8.03 3.70,5.95 2.22,3.88 0.83,2.26 -0.56,0.65 -0.63,0.57 -0.70,0.50 -0.75,0.41 -0.80,0.31 -0.82,0.21 -0.85,0.11 -0.85,0.01 -0.85,-0.09 -0.83,-0.19 -0.81,-0.29 -0.76,-0.38 -0.71,-0.47 -0.65,-0.55 -0.58,-0.63 -0.49,-0.69 -0.41,-0.75 -0.31,-0.79 -0.22,-0.83 -0.11,-0.84 -0.01,-0.86 0.08,-0.85 0.19,-0.84 0.29,-0.80 0.38,-0.77 0.47,-0.71 0.56,-0.65 0.56,-0.65 L 0.56,-0.65 Z"></path></g><g transform="translate(423.1134733327037 387.82093784382585) rotate(0 -23.12971260713624 36.68851976634389)" stroke="none"><path fill="#1e1e1e" d="M 0.84,0.36 Q 0.84,0.36 0.42,2.08 0.01,3.80 -1.68,6.65 -3.38,9.50 -7.52,16.19 -11.67,22.87 -16.20,29.19 -20.74,35.51 -24.95,41.40 -29.15,47.28 -32.53,52.07 -35.91,56.87 -38.01,60.24 -40.11,63.62 -42.45,67.67 -44.80,71.72 -44.86,71.81 -44.91,71.90 -45.00,71.96 -45.08,72.03 -45.18,72.06 -45.28,72.10 -45.39,72.10 -45.49,72.10 -45.60,72.07 -45.70,72.04 -45.78,71.97 -45.87,71.91 -45.93,71.82 -45.99,71.74 -46.02,71.63 -46.05,71.53 -46.04,71.43 -46.04,71.32 -46.00,71.22 -45.96,71.12 -45.90,71.04 -45.83,70.96 -45.74,70.90 -45.65,70.85 -45.55,70.82 -45.44,70.80 -45.34,70.81 -45.23,70.82 -45.13,70.86 -45.04,70.90 -44.96,70.98 -44.88,71.05 -44.83,71.14 -44.78,71.23 -44.76,71.34 -44.74,71.44 -44.76,71.55 -44.77,71.65 -44.82,71.75 -44.87,71.84 -44.95,71.92 -45.02,71.99 -45.12,72.04 -45.21,72.08 -45.32,72.10 -45.42,72.11 -45.53,72.09 -45.63,72.07 -45.72,72.01 -45.82,71.96 -45.89,71.88 -45.96,71.80 -46.00,71.70 -46.04,71.60 -46.04,71.50 -46.05,71.39 -46.02,71.29 -46.00,71.18 -46.00,71.18 -46.00,71.18 -44.45,66.53 -42.91,61.87 -40.75,58.42 -38.59,54.97 -35.18,50.19 -31.77,45.40 -27.54,39.53 -23.32,33.66 -18.83,27.43 -14.34,21.21 -10.19,14.55 -6.03,7.89 -4.40,5.25 -2.76,2.61 -1.80,1.12 -0.84,-0.36 -0.78,-0.45 -0.72,-0.55 -0.65,-0.63 -0.57,-0.70 -0.48,-0.76 -0.39,-0.82 -0.28,-0.86 -0.18,-0.89 -0.07,-0.90 0.03,-0.91 0.14,-0.89 0.25,-0.87 0.35,-0.83 0.45,-0.79 0.54,-0.72 0.63,-0.65 0.70,-0.57 0.77,-0.48 0.82,-0.38 0.86,-0.28 0.88,-0.17 0.91,-0.07 0.90,0.03 0.90,0.14 0.87,0.25 0.84,0.36 0.84,0.36 L 0.84,0.36 Z"></path></g><g transform="translate(709.443405716828 21.733344519564014) rotate(0 -41.07518365234259 37.884872948617755)" stroke="none"><path fill="#1e1e1e" d="M 0.68,1.02 Q 0.68,1.02 -0.63,2.02 -1.96,3.01 -4.05,4.96 -6.14,6.90 -9.36,9.82 -12.59,12.74 -17.38,17.18 -22.18,21.63 -27.89,26.75 -33.61,31.87 -39.22,37.03 -44.84,42.19 -49.97,47.12 -55.10,52.05 -60.76,57.13 -66.42,62.21 -70.71,66.32 -75.00,70.43 -77.01,72.00 -79.03,73.58 -79.11,73.64 -79.20,73.70 -79.30,73.73 -79.40,73.76 -79.51,73.76 -79.61,73.76 -79.71,73.72 -79.81,73.68 -79.90,73.62 -79.98,73.55 -80.04,73.46 -80.09,73.37 -80.12,73.27 -80.14,73.16 -80.14,73.06 -80.13,72.95 -80.09,72.86 -80.04,72.76 -79.97,72.68 -79.90,72.60 -79.81,72.55 -79.72,72.50 -79.61,72.48 -79.51,72.46 -79.40,72.47 -79.30,72.48 -79.20,72.53 -79.11,72.58 -79.03,72.65 -78.96,72.73 -78.91,72.82 -78.86,72.92 -78.85,73.02 -78.83,73.13 -78.85,73.23 -78.87,73.34 -78.93,73.43 -78.98,73.52 -79.06,73.59 -79.14,73.67 -79.23,73.71 -79.33,73.75 -79.44,73.76 -79.54,73.77 -79.65,73.74 -79.75,73.71 -79.84,73.66 -79.93,73.60 -80.00,73.52 -80.06,73.43 -80.10,73.33 -80.14,73.24 -80.14,73.13 -80.14,73.02 -80.11,72.92 -80.08,72.82 -80.02,72.73 -79.95,72.65 -79.95,72.65 -79.95,72.65 -78.38,70.63 -76.80,68.62 -72.64,64.28 -68.47,59.94 -62.88,54.86 -57.28,49.78 -52.11,44.83 -46.95,39.88 -41.29,34.74 -35.63,29.60 -29.92,24.52 -24.21,19.44 -19.38,15.00 -14.56,10.55 -11.34,7.64 -8.11,4.74 -5.83,2.69 -3.54,0.65 -2.11,-0.18 -0.68,-1.02 -0.55,-1.09 -0.41,-1.16 -0.27,-1.19 -0.12,-1.22 0.01,-1.22 0.16,-1.22 0.31,-1.18 0.45,-1.14 0.58,-1.07 0.71,-1.00 0.82,-0.90 0.93,-0.80 1.02,-0.68 1.10,-0.55 1.15,-0.41 1.20,-0.27 1.22,-0.12 1.23,0.02 1.21,0.16 1.19,0.31 1.13,0.45 1.08,0.59 0.99,0.71 0.91,0.83 0.79,0.93 0.68,1.02 0.68,1.02 L 0.68,1.02 Z"></path></g><g transform="translate(726.9900879240688 32.10182764342386) rotate(0 -42.67033900420503 37.48609744227511)" stroke="none"><path fill="#1e1e1e" d="M 0.41,1.03 Q 0.41,1.03 -0.65,1.67 -1.71,2.30 -2.93,3.32 -4.16,4.33 -6.64,5.98 -9.12,7.64 -11.49,9.45 -13.86,11.25 -21.75,17.52 -29.64,23.79 -35.97,28.98 -42.30,34.17 -47.96,39.11 -53.62,44.05 -58.77,48.68 -63.93,53.30 -68.62,57.99 -73.31,62.68 -76.54,66.35 -79.78,70.03 -81.31,71.50 -82.85,72.97 -82.93,73.04 -83.01,73.11 -83.11,73.15 -83.20,73.19 -83.31,73.20 -83.42,73.21 -83.52,73.18 -83.62,73.16 -83.71,73.10 -83.80,73.04 -83.87,72.96 -83.93,72.87 -83.97,72.77 -84.00,72.67 -84.00,72.57 -84.01,72.46 -83.97,72.36 -83.94,72.26 -83.88,72.17 -83.82,72.09 -83.73,72.02 -83.64,71.96 -83.54,71.93 -83.44,71.90 -83.33,71.91 -83.23,71.91 -83.13,71.95 -83.03,71.99 -82.94,72.05 -82.86,72.12 -82.81,72.21 -82.75,72.30 -82.73,72.40 -82.70,72.51 -82.71,72.61 -82.72,72.72 -82.76,72.82 -82.81,72.91 -82.88,72.99 -82.95,73.07 -83.04,73.12 -83.14,73.17 -83.24,73.19 -83.34,73.21 -83.45,73.20 -83.56,73.18 -83.65,73.13 -83.74,73.08 -83.82,73.01 -83.89,72.93 -83.94,72.84 -83.99,72.74 -84.00,72.64 -84.01,72.53 -83.99,72.43 -83.97,72.32 -83.92,72.23 -83.86,72.14 -83.86,72.14 -83.86,72.14 -82.72,70.34 -81.58,68.55 -78.51,64.55 -75.44,60.54 -70.70,55.79 -65.95,51.04 -60.78,46.41 -55.61,41.77 -49.92,36.80 -44.22,31.82 -37.87,26.62 -31.53,21.43 -23.61,15.13 -15.70,8.84 -13.25,6.97 -10.80,5.11 -8.42,3.53 -6.04,1.95 -4.45,0.73 -2.86,-0.47 -1.64,-0.75 -0.41,-1.03 -0.28,-1.07 -0.15,-1.10 -0.01,-1.10 0.11,-1.10 0.24,-1.07 0.37,-1.04 0.49,-0.98 0.61,-0.92 0.71,-0.84 0.82,-0.75 0.89,-0.64 0.97,-0.53 1.02,-0.41 1.07,-0.28 1.09,-0.15 1.11,-0.02 1.10,0.11 1.08,0.24 1.04,0.37 0.99,0.50 0.92,0.61 0.84,0.72 0.74,0.81 0.64,0.90 0.53,0.97 0.41,1.03 0.41,1.03 L 0.41,1.03 Z"></path></g><g transform="translate(632.8760688120384 383.8329961376778) rotate(0 44.26548102444444 39.08125279413753)" stroke="none"><path fill="#1e1e1e" d="M 0.80,-0.67 Q 0.80,-0.67 2.03,0.63 3.26,1.93 5.81,4.25 8.36,6.56 11.31,9.41 14.26,12.26 18.25,15.98 22.24,19.69 27.12,23.77 32.00,27.85 38.00,33.04 44.00,38.23 49.08,42.71 54.17,47.20 58.64,51.41 63.12,55.62 67.51,59.45 71.90,63.27 75.79,66.26 79.69,69.24 82.41,71.58 85.13,73.92 86.14,75.09 87.16,76.26 87.23,76.34 87.30,76.41 87.35,76.51 87.39,76.61 87.40,76.71 87.41,76.82 87.39,76.92 87.36,77.03 87.31,77.12 87.25,77.21 87.17,77.28 87.09,77.34 86.99,77.38 86.89,77.42 86.78,77.42 86.68,77.43 86.57,77.40 86.47,77.37 86.38,77.31 86.30,77.25 86.23,77.16 86.17,77.08 86.14,76.98 86.10,76.88 86.11,76.77 86.11,76.66 86.14,76.56 86.18,76.46 86.24,76.38 86.31,76.29 86.40,76.24 86.49,76.18 86.59,76.15 86.69,76.12 86.80,76.13 86.90,76.14 87.00,76.18 87.10,76.22 87.18,76.29 87.26,76.36 87.31,76.45 87.37,76.54 87.39,76.65 87.41,76.75 87.40,76.85 87.38,76.96 87.34,77.06 87.29,77.15 87.22,77.23 87.14,77.30 87.05,77.35 86.96,77.40 86.85,77.42 86.75,77.43 86.64,77.42 86.54,77.40 86.44,77.35 86.35,77.29 86.35,77.29 86.35,77.29 84.97,76.60 83.59,75.90 80.66,73.84 77.74,71.79 73.76,68.75 69.78,65.71 65.34,61.83 60.91,57.96 56.49,53.76 52.08,49.55 47.03,45.05 41.99,40.54 36.02,35.36 30.05,30.17 25.12,26.03 20.19,21.88 16.19,18.12 12.20,14.36 9.31,11.48 6.42,8.61 3.87,6.08 1.31,3.56 0.25,2.11 -0.80,0.67 -0.87,0.56 -0.94,0.46 -0.98,0.34 -1.02,0.22 -1.03,0.09 -1.05,-0.03 -1.03,-0.15 -1.01,-0.28 -0.96,-0.39 -0.91,-0.51 -0.84,-0.61 -0.76,-0.72 -0.66,-0.80 -0.57,-0.88 -0.45,-0.93 -0.34,-0.99 -0.21,-1.02 -0.09,-1.04 0.03,-1.04 0.15,-1.03 0.28,-1.00 0.40,-0.97 0.51,-0.90 0.62,-0.84 0.71,-0.75 0.80,-0.67 0.80,-0.67 L 0.80,-0.67 Z"></path></g><g transform="translate(642.446974259967 374.26206402650325) rotate(0 48.65215824206615 44.66429652565603)" stroke="none"><path fill="#1e1e1e" d="M 0.70,-0.88 Q 0.70,-0.88 1.93,-0.06 3.15,0.75 5.45,2.21 7.75,3.66 10.17,5.47 12.59,7.27 15.26,9.68 17.93,12.08 20.90,14.93 23.87,17.78 26.97,20.82 30.06,23.86 35.05,28.82 40.04,33.78 45.14,38.62 50.23,43.45 54.22,47.11 58.22,50.76 61.10,53.73 63.98,56.70 66.56,59.33 69.14,61.95 72.74,65.86 76.34,69.78 79.41,72.81 82.48,75.84 85.56,78.54 88.65,81.23 92.31,84.37 95.98,87.51 96.06,87.59 96.13,87.67 96.17,87.76 96.22,87.86 96.23,87.96 96.24,88.07 96.22,88.17 96.20,88.28 96.15,88.37 96.09,88.46 96.01,88.53 95.93,88.60 95.83,88.64 95.73,88.68 95.63,88.68 95.52,88.69 95.42,88.66 95.32,88.63 95.23,88.58 95.14,88.52 95.07,88.43 95.01,88.35 94.98,88.25 94.94,88.15 94.94,88.04 94.94,87.93 94.97,87.83 95.01,87.73 95.07,87.65 95.13,87.56 95.22,87.50 95.31,87.44 95.41,87.41 95.51,87.38 95.62,87.39 95.73,87.40 95.83,87.43 95.92,87.47 96.01,87.54 96.09,87.61 96.14,87.70 96.20,87.79 96.22,87.89 96.24,88.00 96.23,88.10 96.22,88.21 96.18,88.31 96.13,88.40 96.06,88.48 95.99,88.56 95.89,88.61 95.80,88.66 95.70,88.68 95.59,88.69 95.49,88.68 95.38,88.66 95.29,88.61 95.19,88.56 95.19,88.56 95.19,88.56 91.10,85.87 87.01,83.18 83.75,80.55 80.49,77.92 77.27,74.92 74.06,71.92 70.41,68.10 66.77,64.28 64.18,61.65 61.58,59.03 58.77,56.13 55.96,53.22 51.95,49.54 47.94,45.85 42.84,40.97 37.74,36.09 32.77,31.12 27.80,26.16 24.73,23.11 21.65,20.07 18.74,17.24 15.82,14.40 13.27,12.07 10.72,9.73 8.41,7.94 6.11,6.14 3.77,4.53 1.43,2.91 0.36,1.89 -0.70,0.88 -0.80,0.78 -0.90,0.69 -0.97,0.57 -1.03,0.45 -1.07,0.32 -1.11,0.19 -1.12,0.05 -1.13,-0.08 -1.10,-0.21 -1.08,-0.34 -1.02,-0.47 -0.96,-0.59 -0.87,-0.70 -0.79,-0.81 -0.68,-0.89 -0.57,-0.97 -0.45,-1.03 -0.32,-1.08 -0.19,-1.11 -0.05,-1.13 0.07,-1.12 0.21,-1.11 0.34,-1.07 0.47,-1.03 0.59,-0.95 0.70,-0.88 0.70,-0.88 L 0.70,-0.88 Z"></path></g></svg>